<svg width="253" height="253" viewBox="0 0 253 253" fill="none" xmlns="http://www.w3.org/2000/svg">
<circle cx="11.076" cy="11.076" r="11.076" fill="white" fill-opacity="0.3"/>
<circle cx="49.5506" cy="11.076" r="11.076" fill="white" fill-opacity="0.3"/>
<circle cx="88.0253" cy="11.076" r="11.076" fill="white" fill-opacity="0.3"/>
<circle cx="126.5" cy="11.076" r="11.076" fill="white" fill-opacity="0.3"/>
<circle cx="164.974" cy="11.076" r="11.076" fill="white" fill-opacity="0.3"/>
<circle cx="203.449" cy="11.076" r="11.076" fill="white" fill-opacity="0.3"/>
<circle cx="241.924" cy="11.076" r="11.076" fill="white" fill-opacity="0.3"/>
<circle cx="11.076" cy="49.5506" r="11.076" fill="white" fill-opacity="0.3"/>
<circle cx="49.5506" cy="49.5506" r="11.076" fill="white" fill-opacity="0.3"/>
<circle cx="88.0253" cy="49.5506" r="11.076" fill="white" fill-opacity="0.3"/>
<circle cx="126.5" cy="49.5506" r="11.076" fill="white" fill-opacity="0.3"/>
<circle cx="164.974" cy="49.5506" r="11.076" fill="white" fill-opacity="0.3"/>
<circle cx="203.449" cy="49.5506" r="11.076" fill="white" fill-opacity="0.3"/>
<circle cx="241.924" cy="49.5506" r="11.076" fill="white" fill-opacity="0.3"/>
<circle cx="11.076" cy="88.0253" r="11.076" fill="white" fill-opacity="0.3"/>
<circle cx="49.5506" cy="88.0253" r="11.076" fill="white" fill-opacity="0.3"/>
<circle cx="88.0253" cy="88.0253" r="11.076" fill="white" fill-opacity="0.3"/>
<circle cx="126.5" cy="88.0253" r="11.076" fill="white" fill-opacity="0.3"/>
<circle cx="164.974" cy="88.0253" r="11.076" fill="white" fill-opacity="0.3"/>
<circle cx="203.449" cy="88.0253" r="11.076" fill="white" fill-opacity="0.3"/>
<circle cx="241.924" cy="88.0253" r="11.076" fill="white" fill-opacity="0.3"/>
<circle cx="11.076" cy="126.5" r="11.076" fill="white" fill-opacity="0.45"/>
<circle cx="49.5506" cy="126.5" r="11.076" fill="white" fill-opacity="0.6"/>
<circle cx="88.0253" cy="126.5" r="11.076" fill="white" fill-opacity="0.8"/>
<circle cx="126.5" cy="126.5" r="11.076" fill="white"/>
<circle cx="164.974" cy="126.5" r="11.076" fill="white" fill-opacity="0.8"/>
<circle cx="203.449" cy="126.5" r="11.076" fill="white" fill-opacity="0.6"/>
<circle cx="241.924" cy="126.5" r="11.076" fill="white" fill-opacity="0.45"/>
<circle cx="11.076" cy="164.974" r="11.076" fill="white" fill-opacity="0.3"/>
<circle cx="49.5506" cy="164.974" r="11.076" fill="white" fill-opacity="0.3"/>
<circle cx="88.0253" cy="164.974" r="11.076" fill="white" fill-opacity="0.3"/>
<circle cx="126.5" cy="164.974" r="11.076" fill="white" fill-opacity="0.3"/>
<circle cx="164.974" cy="164.974" r="11.076" fill="white" fill-opacity="0.3"/>
<circle cx="203.449" cy="164.974" r="11.076" fill="white" fill-opacity="0.3"/>
<circle cx="241.924" cy="164.974" r="11.076" fill="white" fill-opacity="0.3"/>
<circle cx="11.076" cy="203.449" r="11.076" fill="white" fill-opacity="0.3"/>
<circle cx="49.5506" cy="203.449" r="11.076" fill="white" fill-opacity="0.3"/>
<circle cx="88.0253" cy="203.449" r="11.076" fill="white" fill-opacity="0.3"/>
<circle cx="126.5" cy="203.449" r="11.076" fill="white" fill-opacity="0.3"/>
<circle cx="164.974" cy="203.449" r="11.076" fill="white" fill-opacity="0.3"/>
<circle cx="203.449" cy="203.449" r="11.076" fill="white" fill-opacity="0.3"/>
<circle cx="241.924" cy="203.449" r="11.076" fill="white" fill-opacity="0.3"/>
<circle cx="11.076" cy="241.924" r="11.076" fill="white" fill-opacity="0.3"/>
<circle cx="49.5506" cy="241.924" r="11.076" fill="white" fill-opacity="0.3"/>
<circle cx="88.0253" cy="241.924" r="11.076" fill="white" fill-opacity="0.3"/>
<circle cx="126.5" cy="241.924" r="11.076" fill="white" fill-opacity="0.3"/>
<circle cx="164.974" cy="241.924" r="11.076" fill="white" fill-opacity="0.3"/>
<circle cx="203.449" cy="241.924" r="11.076" fill="white" fill-opacity="0.3"/>
<circle cx="241.924" cy="241.924" r="11.076" fill="white" fill-opacity="0.3"/>
</svg>
