<svg width="1207" height="353" viewBox="0 0 1207 353" fill="none" xmlns="http://www.w3.org/2000/svg">
<g opacity="0.2" clip-path="url(#clip0_95_2596)">
<g clip-path="url(#clip1_95_2596)">
<g clip-path="url(#clip2_95_2596)">
<mask id="mask0_95_2596" style="mask-type:luminance" maskUnits="userSpaceOnUse" x="0" y="-173" width="1207" height="526">
<path d="M1207 -173H0V352.299H1207V-173Z" fill="white"/>
</mask>
<g mask="url(#mask0_95_2596)">
<path d="M50.676 229.476H0.418823V279.733H50.676V229.476Z" stroke="#000490" stroke-width="0.837619"/>
<path d="M100.933 229.476H50.676V279.733H100.933V229.476Z" stroke="#000490" stroke-width="0.837619"/>
<path d="M151.19 229.476H100.933V279.733H151.19V229.476Z" stroke="#000490" stroke-width="0.837619"/>
<path d="M201.447 229.476H151.19V279.733H201.447V229.476Z" stroke="#000490" stroke-width="0.837619"/>
<path d="M251.704 229.476H201.447V279.733H251.704V229.476Z" stroke="#000490" stroke-width="0.837619"/>
<path d="M301.961 229.476H251.704V279.733H301.961V229.476Z" stroke="#000490" stroke-width="0.837619"/>
<path d="M352.219 229.476H301.961V279.733H352.219V229.476Z" stroke="#000490" stroke-width="0.837619"/>
<path d="M402.476 229.476H352.219V279.733H402.476V229.476Z" stroke="#000490" stroke-width="0.837619"/>
<path d="M452.733 229.476H402.476V279.733H452.733V229.476Z" stroke="#000490" stroke-width="0.837619"/>
<path d="M502.99 229.476H452.733V279.733H502.99V229.476Z" stroke="#000490" stroke-width="0.837619"/>
<path d="M553.247 229.476H502.99V279.733H553.247V229.476Z" stroke="#000490" stroke-width="0.837619"/>
<path d="M603.504 229.476H553.247V279.733H603.504V229.476Z" stroke="#000490" stroke-width="0.837619"/>
<path d="M653.761 229.476H603.504V279.733H653.761V229.476Z" stroke="#000490" stroke-width="0.837619"/>
<path d="M704.019 229.476H653.761V279.733H704.019V229.476Z" stroke="#000490" stroke-width="0.837619"/>
<path d="M754.276 229.476H704.019V279.733H754.276V229.476Z" stroke="#000490" stroke-width="0.837619"/>
<path d="M804.533 229.476H754.276V279.733H804.533V229.476Z" stroke="#000490" stroke-width="0.837619"/>
<path d="M854.79 229.476H804.533V279.733H854.79V229.476Z" stroke="#000490" stroke-width="0.837619"/>
<path d="M905.047 229.476H854.79V279.733H905.047V229.476Z" stroke="#000490" stroke-width="0.837619"/>
<path d="M955.305 229.476H905.047V279.733H955.305V229.476Z" stroke="#000490" stroke-width="0.837619"/>
<path d="M1005.56 229.476H955.304V279.733H1005.56V229.476Z" stroke="#000490" stroke-width="0.837619"/>
<path d="M1055.82 229.476H1005.56V279.733H1055.82V229.476Z" stroke="#000490" stroke-width="0.837619"/>
<path d="M1106.08 229.476H1055.82V279.733H1106.08V229.476Z" stroke="#000490" stroke-width="0.837619"/>
<path d="M1156.33 229.476H1106.07V279.733H1156.33V229.476Z" stroke="#000490" stroke-width="0.837619"/>
<path d="M1206.59 229.476H1156.34V279.733H1206.59V229.476Z" stroke="#000490" stroke-width="0.837619"/>
<path d="M50.676 28.4473H0.418823V78.7044H50.676V28.4473Z" stroke="#000490" stroke-width="0.837619"/>
<path d="M100.933 28.4473H50.676V78.7044H100.933V28.4473Z" stroke="#000490" stroke-width="0.837619"/>
<path d="M151.19 28.4473H100.933V78.7044H151.19V28.4473Z" stroke="#000490" stroke-width="0.837619"/>
<path d="M201.447 28.4473H151.19V78.7044H201.447V28.4473Z" stroke="#000490" stroke-width="0.837619"/>
<path d="M251.704 28.4473H201.447V78.7044H251.704V28.4473Z" stroke="#000490" stroke-width="0.837619"/>
<path d="M301.961 28.4473H251.704V78.7044H301.961V28.4473Z" stroke="#000490" stroke-width="0.837619"/>
<path d="M352.219 28.4473H301.961V78.7044H352.219V28.4473Z" stroke="#000490" stroke-width="0.837619"/>
<path d="M402.476 28.4473H352.219V78.7044H402.476V28.4473Z" stroke="#000490" stroke-width="0.837619"/>
<path d="M452.733 28.4473H402.476V78.7044H452.733V28.4473Z" stroke="#000490" stroke-width="0.837619"/>
<path d="M502.99 28.4473H452.733V78.7044H502.99V28.4473Z" stroke="#000490" stroke-width="0.837619"/>
<path d="M553.247 28.4473H502.99V78.7044H553.247V28.4473Z" stroke="#000490" stroke-width="0.837619"/>
<path d="M603.504 28.4473H553.247V78.7044H603.504V28.4473Z" stroke="#000490" stroke-width="0.837619"/>
<path d="M653.761 28.4473H603.504V78.7044H653.761V28.4473Z" stroke="#000490" stroke-width="0.837619"/>
<path d="M704.019 28.4473H653.761V78.7044H704.019V28.4473Z" stroke="#000490" stroke-width="0.837619"/>
<path d="M754.276 28.4473H704.019V78.7044H754.276V28.4473Z" stroke="#000490" stroke-width="0.837619"/>
<path d="M804.533 28.4473H754.276V78.7044H804.533V28.4473Z" stroke="#000490" stroke-width="0.837619"/>
<path d="M854.79 28.4473H804.533V78.7044H854.79V28.4473Z" stroke="#000490" stroke-width="0.837619"/>
<path d="M905.047 28.4473H854.79V78.7044H905.047V28.4473Z" stroke="#000490" stroke-width="0.837619"/>
<path d="M955.305 28.4473H905.047V78.7044H955.305V28.4473Z" stroke="#000490" stroke-width="0.837619"/>
<path d="M1005.56 28.4473H955.304V78.7044H1005.56V28.4473Z" stroke="#000490" stroke-width="0.837619"/>
<path d="M1055.82 28.4473H1005.56V78.7044H1055.82V28.4473Z" stroke="#000490" stroke-width="0.837619"/>
<path d="M1106.08 28.4473H1055.82V78.7044H1106.08V28.4473Z" stroke="#000490" stroke-width="0.837619"/>
<path d="M1156.33 28.4473H1106.07V78.7044H1156.33V28.4473Z" stroke="#000490" stroke-width="0.837619"/>
<path d="M1206.59 28.4473H1156.34V78.7044H1206.59V28.4473Z" stroke="#000490" stroke-width="0.837619"/>
<path d="M50.676 279.733H0.418823V329.991H50.676V279.733Z" stroke="#000490" stroke-width="0.837619"/>
<path d="M100.933 279.733H50.676V329.991H100.933V279.733Z" stroke="#000490" stroke-width="0.837619"/>
<path d="M151.19 279.733H100.933V329.991H151.19V279.733Z" stroke="#000490" stroke-width="0.837619"/>
<path d="M201.447 279.733H151.19V329.991H201.447V279.733Z" stroke="#000490" stroke-width="0.837619"/>
<path d="M251.704 279.733H201.447V329.991H251.704V279.733Z" stroke="#000490" stroke-width="0.837619"/>
<path d="M301.961 279.733H251.704V329.991H301.961V279.733Z" stroke="#000490" stroke-width="0.837619"/>
<path d="M352.219 279.733H301.961V329.991H352.219V279.733Z" stroke="#000490" stroke-width="0.837619"/>
<path d="M402.476 279.733H352.219V329.991H402.476V279.733Z" stroke="#000490" stroke-width="0.837619"/>
<path d="M452.733 279.733H402.476V329.991H452.733V279.733Z" stroke="#000490" stroke-width="0.837619"/>
<path d="M502.99 279.733H452.733V329.991H502.99V279.733Z" stroke="#000490" stroke-width="0.837619"/>
<path d="M553.247 279.733H502.99V329.991H553.247V279.733Z" stroke="#000490" stroke-width="0.837619"/>
<path d="M603.504 279.733H553.247V329.991H603.504V279.733Z" stroke="#000490" stroke-width="0.837619"/>
<path d="M653.761 279.733H603.504V329.991H653.761V279.733Z" stroke="#000490" stroke-width="0.837619"/>
<path d="M704.019 279.733H653.761V329.991H704.019V279.733Z" stroke="#000490" stroke-width="0.837619"/>
<path d="M754.276 279.733H704.019V329.991H754.276V279.733Z" stroke="#000490" stroke-width="0.837619"/>
<path d="M804.533 279.733H754.276V329.991H804.533V279.733Z" stroke="#000490" stroke-width="0.837619"/>
<path d="M854.79 279.733H804.533V329.991H854.79V279.733Z" stroke="#000490" stroke-width="0.837619"/>
<path d="M905.047 279.733H854.79V329.991H905.047V279.733Z" stroke="#000490" stroke-width="0.837619"/>
<path d="M955.305 279.733H905.047V329.991H955.305V279.733Z" stroke="#000490" stroke-width="0.837619"/>
<path d="M1005.56 279.733H955.304V329.991H1005.56V279.733Z" stroke="#000490" stroke-width="0.837619"/>
<path d="M1055.82 279.733H1005.56V329.991H1055.82V279.733Z" stroke="#000490" stroke-width="0.837619"/>
<path d="M1106.08 279.733H1055.82V329.991H1106.08V279.733Z" stroke="#000490" stroke-width="0.837619"/>
<path d="M1156.33 279.733H1106.07V329.991H1156.33V279.733Z" stroke="#000490" stroke-width="0.837619"/>
<path d="M1206.59 279.733H1156.34V329.991H1206.59V279.733Z" stroke="#000490" stroke-width="0.837619"/>
<path d="M50.676 78.7041H0.418823V128.961H50.676V78.7041Z" stroke="#000490" stroke-width="0.837619"/>
<path d="M100.933 78.7041H50.676V128.961H100.933V78.7041Z" stroke="#000490" stroke-width="0.837619"/>
<path d="M151.19 78.7041H100.933V128.961H151.19V78.7041Z" stroke="#000490" stroke-width="0.837619"/>
<path d="M201.447 78.7041H151.19V128.961H201.447V78.7041Z" stroke="#000490" stroke-width="0.837619"/>
<path d="M251.704 78.7041H201.447V128.961H251.704V78.7041Z" stroke="#000490" stroke-width="0.837619"/>
<path d="M301.961 78.7041H251.704V128.961H301.961V78.7041Z" stroke="#000490" stroke-width="0.837619"/>
<path d="M352.219 78.7041H301.961V128.961H352.219V78.7041Z" stroke="#000490" stroke-width="0.837619"/>
<path d="M402.476 78.7041H352.219V128.961H402.476V78.7041Z" stroke="#000490" stroke-width="0.837619"/>
<path d="M452.733 78.7041H402.476V128.961H452.733V78.7041Z" stroke="#000490" stroke-width="0.837619"/>
<path d="M502.99 78.7041H452.733V128.961H502.99V78.7041Z" stroke="#000490" stroke-width="0.837619"/>
<path d="M553.247 78.7041H502.99V128.961H553.247V78.7041Z" stroke="#000490" stroke-width="0.837619"/>
<path d="M603.504 78.7041H553.247V128.961H603.504V78.7041Z" stroke="#000490" stroke-width="0.837619"/>
<path d="M653.761 78.7041H603.504V128.961H653.761V78.7041Z" stroke="#000490" stroke-width="0.837619"/>
<path d="M704.019 78.7041H653.761V128.961H704.019V78.7041Z" stroke="#000490" stroke-width="0.837619"/>
<path d="M754.276 78.7041H704.019V128.961H754.276V78.7041Z" stroke="#000490" stroke-width="0.837619"/>
<path d="M804.533 78.7041H754.276V128.961H804.533V78.7041Z" stroke="#000490" stroke-width="0.837619"/>
<path d="M854.79 78.7041H804.533V128.961H854.79V78.7041Z" stroke="#000490" stroke-width="0.837619"/>
<path d="M905.047 78.7041H854.79V128.961H905.047V78.7041Z" stroke="#000490" stroke-width="0.837619"/>
<path d="M955.305 78.7041H905.047V128.961H955.305V78.7041Z" stroke="#000490" stroke-width="0.837619"/>
<path d="M1005.56 78.7041H955.304V128.961H1005.56V78.7041Z" stroke="#000490" stroke-width="0.837619"/>
<path d="M1055.82 78.7041H1005.56V128.961H1055.82V78.7041Z" stroke="#000490" stroke-width="0.837619"/>
<path d="M1106.08 78.7041H1055.82V128.961H1106.08V78.7041Z" stroke="#000490" stroke-width="0.837619"/>
<path d="M1156.33 78.7041H1106.07V128.961H1156.33V78.7041Z" stroke="#000490" stroke-width="0.837619"/>
<path d="M1206.59 78.7041H1156.34V128.961H1206.59V78.7041Z" stroke="#000490" stroke-width="0.837619"/>
<path d="M50.676 329.989H0.418823V380.246H50.676V329.989Z" stroke="#000490" stroke-width="0.837619"/>
<path d="M100.933 329.989H50.676V380.246H100.933V329.989Z" stroke="#000490" stroke-width="0.837619"/>
<path d="M151.19 329.989H100.933V380.246H151.19V329.989Z" stroke="#000490" stroke-width="0.837619"/>
<path d="M201.447 329.989H151.19V380.246H201.447V329.989Z" stroke="#000490" stroke-width="0.837619"/>
<path d="M251.704 329.989H201.447V380.246H251.704V329.989Z" stroke="#000490" stroke-width="0.837619"/>
<path d="M301.961 329.989H251.704V380.246H301.961V329.989Z" stroke="#000490" stroke-width="0.837619"/>
<path d="M352.219 329.989H301.961V380.246H352.219V329.989Z" stroke="#000490" stroke-width="0.837619"/>
<path d="M402.476 329.989H352.219V380.246H402.476V329.989Z" stroke="#000490" stroke-width="0.837619"/>
<path d="M452.733 329.989H402.476V380.246H452.733V329.989Z" stroke="#000490" stroke-width="0.837619"/>
<path d="M502.99 329.989H452.733V380.246H502.99V329.989Z" stroke="#000490" stroke-width="0.837619"/>
<path d="M553.247 329.989H502.99V380.246H553.247V329.989Z" stroke="#000490" stroke-width="0.837619"/>
<path d="M603.504 329.989H553.247V380.246H603.504V329.989Z" stroke="#000490" stroke-width="0.837619"/>
<path d="M653.761 329.989H603.504V380.246H653.761V329.989Z" stroke="#000490" stroke-width="0.837619"/>
<path d="M704.019 329.989H653.761V380.246H704.019V329.989Z" stroke="#000490" stroke-width="0.837619"/>
<path d="M754.276 329.989H704.019V380.246H754.276V329.989Z" stroke="#000490" stroke-width="0.837619"/>
<path d="M804.533 329.989H754.276V380.246H804.533V329.989Z" stroke="#000490" stroke-width="0.837619"/>
<path d="M854.79 329.989H804.533V380.246H854.79V329.989Z" stroke="#000490" stroke-width="0.837619"/>
<path d="M905.047 329.989H854.79V380.246H905.047V329.989Z" stroke="#000490" stroke-width="0.837619"/>
<path d="M955.305 329.989H905.047V380.246H955.305V329.989Z" stroke="#000490" stroke-width="0.837619"/>
<path d="M1005.56 329.989H955.304V380.246H1005.56V329.989Z" stroke="#000490" stroke-width="0.837619"/>
<path d="M1055.82 329.989H1005.56V380.246H1055.82V329.989Z" stroke="#000490" stroke-width="0.837619"/>
<path d="M1106.08 329.989H1055.82V380.246H1106.08V329.989Z" stroke="#000490" stroke-width="0.837619"/>
<path d="M1156.33 329.989H1106.07V380.246H1156.33V329.989Z" stroke="#000490" stroke-width="0.837619"/>
<path d="M1206.59 329.989H1156.34V380.246H1206.59V329.989Z" stroke="#000490" stroke-width="0.837619"/>
<path d="M50.676 128.961H0.418823V179.218H50.676V128.961Z" stroke="#000490" stroke-width="0.837619"/>
<path d="M100.933 128.961H50.676V179.218H100.933V128.961Z" stroke="#000490" stroke-width="0.837619"/>
<path d="M151.19 128.961H100.933V179.218H151.19V128.961Z" stroke="#000490" stroke-width="0.837619"/>
<path d="M201.447 128.961H151.19V179.218H201.447V128.961Z" stroke="#000490" stroke-width="0.837619"/>
<path d="M251.704 128.961H201.447V179.218H251.704V128.961Z" stroke="#000490" stroke-width="0.837619"/>
<path d="M301.961 128.961H251.704V179.218H301.961V128.961Z" stroke="#000490" stroke-width="0.837619"/>
<path d="M352.219 128.961H301.961V179.218H352.219V128.961Z" stroke="#000490" stroke-width="0.837619"/>
<path d="M402.476 128.961H352.219V179.218H402.476V128.961Z" stroke="#000490" stroke-width="0.837619"/>
<path d="M452.733 128.961H402.476V179.218H452.733V128.961Z" stroke="#000490" stroke-width="0.837619"/>
<path d="M502.99 128.961H452.733V179.218H502.99V128.961Z" stroke="#000490" stroke-width="0.837619"/>
<path d="M553.247 128.961H502.99V179.218H553.247V128.961Z" stroke="#000490" stroke-width="0.837619"/>
<path d="M603.504 128.961H553.247V179.218H603.504V128.961Z" stroke="#000490" stroke-width="0.837619"/>
<path d="M653.761 128.961H603.504V179.218H653.761V128.961Z" stroke="#000490" stroke-width="0.837619"/>
<path d="M704.019 128.961H653.761V179.218H704.019V128.961Z" stroke="#000490" stroke-width="0.837619"/>
<path d="M754.276 128.961H704.019V179.218H754.276V128.961Z" stroke="#000490" stroke-width="0.837619"/>
<path d="M804.533 128.961H754.276V179.218H804.533V128.961Z" stroke="#000490" stroke-width="0.837619"/>
<path d="M854.79 128.961H804.533V179.218H854.79V128.961Z" stroke="#000490" stroke-width="0.837619"/>
<path d="M905.047 128.961H854.79V179.218H905.047V128.961Z" stroke="#000490" stroke-width="0.837619"/>
<path d="M955.305 128.961H905.047V179.218H955.305V128.961Z" stroke="#000490" stroke-width="0.837619"/>
<path d="M1005.56 128.961H955.304V179.218H1005.56V128.961Z" stroke="#000490" stroke-width="0.837619"/>
<path d="M1055.82 128.961H1005.56V179.218H1055.82V128.961Z" stroke="#000490" stroke-width="0.837619"/>
<path d="M1106.08 128.961H1055.82V179.218H1106.08V128.961Z" stroke="#000490" stroke-width="0.837619"/>
<path d="M1156.33 128.961H1106.07V179.218H1156.33V128.961Z" stroke="#000490" stroke-width="0.837619"/>
<path d="M1206.59 128.961H1156.34V179.218H1206.59V128.961Z" stroke="#000490" stroke-width="0.837619"/>
<path d="M50.676 -21.8096H0.418823V28.4476H50.676V-21.8096Z" stroke="#000490" stroke-width="0.837619"/>
<path d="M100.933 -21.8096H50.676V28.4476H100.933V-21.8096Z" stroke="#000490" stroke-width="0.837619"/>
<path d="M151.19 -21.8096H100.933V28.4476H151.19V-21.8096Z" stroke="#000490" stroke-width="0.837619"/>
<path d="M201.447 -21.8096H151.19V28.4476H201.447V-21.8096Z" stroke="#000490" stroke-width="0.837619"/>
<path d="M251.704 -21.8096H201.447V28.4476H251.704V-21.8096Z" stroke="#000490" stroke-width="0.837619"/>
<path d="M301.961 -21.8096H251.704V28.4476H301.961V-21.8096Z" stroke="#000490" stroke-width="0.837619"/>
<path d="M352.219 -21.8096H301.961V28.4476H352.219V-21.8096Z" stroke="#000490" stroke-width="0.837619"/>
<path d="M402.476 -21.8096H352.219V28.4476H402.476V-21.8096Z" stroke="#000490" stroke-width="0.837619"/>
<path d="M452.733 -21.8096H402.476V28.4476H452.733V-21.8096Z" stroke="#000490" stroke-width="0.837619"/>
<path d="M502.99 -21.8096H452.733V28.4476H502.99V-21.8096Z" stroke="#000490" stroke-width="0.837619"/>
<path d="M553.247 -21.8096H502.99V28.4476H553.247V-21.8096Z" stroke="#000490" stroke-width="0.837619"/>
<path d="M603.504 -21.8096H553.247V28.4476H603.504V-21.8096Z" stroke="#000490" stroke-width="0.837619"/>
<path d="M653.761 -21.8096H603.504V28.4476H653.761V-21.8096Z" stroke="#000490" stroke-width="0.837619"/>
<path d="M704.019 -21.8096H653.761V28.4476H704.019V-21.8096Z" stroke="#000490" stroke-width="0.837619"/>
<path d="M754.276 -21.8096H704.019V28.4476H754.276V-21.8096Z" stroke="#000490" stroke-width="0.837619"/>
<path d="M804.533 -21.8096H754.276V28.4476H804.533V-21.8096Z" stroke="#000490" stroke-width="0.837619"/>
<path d="M854.79 -21.8096H804.533V28.4476H854.79V-21.8096Z" stroke="#000490" stroke-width="0.837619"/>
<path d="M905.047 -21.8096H854.79V28.4476H905.047V-21.8096Z" stroke="#000490" stroke-width="0.837619"/>
<path d="M955.305 -21.8096H905.047V28.4476H955.305V-21.8096Z" stroke="#000490" stroke-width="0.837619"/>
<path d="M1005.56 -21.8096H955.304V28.4476H1005.56V-21.8096Z" stroke="#000490" stroke-width="0.837619"/>
<path d="M1055.82 -21.8096H1005.56V28.4476H1055.82V-21.8096Z" stroke="#000490" stroke-width="0.837619"/>
<path d="M1106.08 -21.8096H1055.82V28.4476H1106.08V-21.8096Z" stroke="#000490" stroke-width="0.837619"/>
<path d="M1156.33 -21.8096H1106.07V28.4476H1156.33V-21.8096Z" stroke="#000490" stroke-width="0.837619"/>
<path d="M1206.59 -21.8096H1156.34V28.4476H1206.59V-21.8096Z" stroke="#000490" stroke-width="0.837619"/>
<path d="M50.676 179.219H0.418823V229.476H50.676V179.219Z" stroke="#000490" stroke-width="0.837619"/>
<path d="M100.933 179.219H50.676V229.476H100.933V179.219Z" stroke="#000490" stroke-width="0.837619"/>
<path d="M151.19 179.219H100.933V229.476H151.19V179.219Z" stroke="#000490" stroke-width="0.837619"/>
<path d="M201.447 179.219H151.19V229.476H201.447V179.219Z" stroke="#000490" stroke-width="0.837619"/>
<path d="M251.704 179.219H201.447V229.476H251.704V179.219Z" stroke="#000490" stroke-width="0.837619"/>
<path d="M301.961 179.219H251.704V229.476H301.961V179.219Z" stroke="#000490" stroke-width="0.837619"/>
<path d="M352.219 179.219H301.961V229.476H352.219V179.219Z" stroke="#000490" stroke-width="0.837619"/>
<path d="M402.476 179.219H352.219V229.476H402.476V179.219Z" stroke="#000490" stroke-width="0.837619"/>
<path d="M452.733 179.219H402.476V229.476H452.733V179.219Z" stroke="#000490" stroke-width="0.837619"/>
<path d="M502.99 179.219H452.733V229.476H502.99V179.219Z" stroke="#000490" stroke-width="0.837619"/>
<path d="M553.247 179.219H502.99V229.476H553.247V179.219Z" stroke="#000490" stroke-width="0.837619"/>
<path d="M603.504 179.219H553.247V229.476H603.504V179.219Z" stroke="#000490" stroke-width="0.837619"/>
<path d="M653.761 179.219H603.504V229.476H653.761V179.219Z" stroke="#000490" stroke-width="0.837619"/>
<path d="M704.019 179.219H653.761V229.476H704.019V179.219Z" stroke="#000490" stroke-width="0.837619"/>
<path d="M754.276 179.219H704.019V229.476H754.276V179.219Z" stroke="#000490" stroke-width="0.837619"/>
<path d="M804.533 179.219H754.276V229.476H804.533V179.219Z" stroke="#000490" stroke-width="0.837619"/>
<path d="M854.79 179.219H804.533V229.476H854.79V179.219Z" stroke="#000490" stroke-width="0.837619"/>
<path d="M905.047 179.219H854.79V229.476H905.047V179.219Z" stroke="#000490" stroke-width="0.837619"/>
<path d="M955.305 179.219H905.047V229.476H955.305V179.219Z" stroke="#000490" stroke-width="0.837619"/>
<path d="M1005.56 179.219H955.304V229.476H1005.56V179.219Z" stroke="#000490" stroke-width="0.837619"/>
<path d="M1055.82 179.219H1005.56V229.476H1055.82V179.219Z" stroke="#000490" stroke-width="0.837619"/>
<path d="M1106.08 179.219H1055.82V229.476H1106.08V179.219Z" stroke="#000490" stroke-width="0.837619"/>
<path d="M1156.33 179.219H1106.07V229.476H1156.33V179.219Z" stroke="#000490" stroke-width="0.837619"/>
<path d="M1206.59 179.219H1156.34V229.476H1206.59V179.219Z" stroke="#000490" stroke-width="0.837619"/>
<path d="M1207 -173H0V352.299H1207V-173Z" fill="url(#paint0_radial_95_2596)"/>
</g>
</g>
</g>
</g>
<defs>
<radialGradient id="paint0_radial_95_2596" cx="0" cy="0" r="1" gradientUnits="userSpaceOnUse" gradientTransform="translate(580.598 49.3738) rotate(89.1762) scale(317.519 772.009)">
<stop stop-color="#F8F5EE" stop-opacity="0"/>
<stop offset="1" stop-color="#F8F5EE"/>
</radialGradient>
<clipPath id="clip0_95_2596">
<rect width="1207" height="525.301" fill="white" transform="translate(0 -173)"/>
</clipPath>
<clipPath id="clip1_95_2596">
<rect width="1207" height="525.301" fill="white" transform="translate(0 -173)"/>
</clipPath>
<clipPath id="clip2_95_2596">
<rect width="1207" height="525.299" fill="white" transform="translate(0 -172.999)"/>
</clipPath>
</defs>
</svg>
