<svg width="124" height="41" viewBox="0 0 124 41" fill="none" xmlns="http://www.w3.org/2000/svg">
<g clip-path="url(#clip0_95_1063)">
<path d="M0.359863 40.5898H123.437V0.589844H0.359863V40.5898Z" fill="#F8F5EE"/>
<path fill-rule="evenodd" clip-rule="evenodd" d="M51.2439 29.1782L49.6871 36.416H46.1064L52.0223 10.1853H56.2639L61.8294 36.416H58.2099L56.692 29.1782H51.2439ZM56.2639 26.2592L55.0574 19.9924C54.7071 18.2021 54.3568 15.8682 54.085 13.9994H53.9287C53.6569 15.9065 53.2664 18.3189 52.9174 19.9924L51.672 26.2592H56.2639ZM75.4968 9.48535V31.5516C75.4968 32.9923 75.5746 35.094 75.6518 36.4166H72.4999L72.2664 34.121H72.1497C71.527 35.4436 70.0869 36.7286 68.1805 36.7286C64.6777 36.7286 62.5371 32.9138 62.5371 27.0382C62.5371 20.344 65.3776 17.1915 68.3751 17.1915C69.8923 17.1915 71.0988 17.8927 71.7605 19.3321H71.8383V9.48535H75.4968ZM71.8377 24.7024C71.8377 24.3527 71.8377 23.9246 71.7987 23.5341C71.6042 21.8223 70.6311 20.3433 69.3085 20.3433C67.0116 20.3433 66.2339 23.5341 66.2339 27.0376C66.2339 30.9296 67.2458 33.6533 69.1918 33.6533C70.0091 33.6533 71.0982 33.2252 71.7209 30.9685C71.7987 30.6571 71.8377 30.1894 71.8377 29.7626V24.7024ZM84.2109 36.728C80.4364 36.728 77.7113 33.4976 77.7113 26.9993C77.7113 20.1098 80.941 17.1908 84.4049 17.1908C88.1412 17.1908 90.826 20.5379 90.826 26.9208C90.826 34.4323 87.1286 36.728 84.2492 36.728H84.2109ZM84.3271 33.8485C86.5838 33.8485 87.0904 29.8398 87.0904 26.9604C87.0904 24.1186 86.5844 20.0716 84.2499 20.0716C81.8362 20.0716 81.3698 24.1186 81.3698 26.9604C81.3698 30.1122 81.9147 33.8485 84.2888 33.8485H84.3271ZM93.0315 9.48535H96.6893V19.6428H96.7671C97.7401 17.931 99.0634 17.1908 100.737 17.1908C103.967 17.1908 105.991 20.8493 105.991 26.6484C105.991 33.4198 103.228 36.728 100.114 36.728C98.2461 36.728 97.1953 35.7154 96.3773 34.0418H96.2229L96.0277 36.416H92.8758C92.9536 35.1323 93.0315 32.9917 93.0315 31.551V9.48535ZM96.6893 29.7217C96.6893 30.1512 96.7282 30.5793 96.845 30.89C97.4281 33.1869 98.5575 33.6533 99.2963 33.6533C101.476 33.6533 102.293 30.7739 102.293 26.8819C102.293 23.2623 101.438 20.3433 99.2574 20.3433C98.0508 20.3433 97.0779 21.7834 96.8054 23.1456C96.7276 23.5348 96.6886 24.0414 96.6886 24.4299V29.7217H96.6893ZM111.389 27.6986C111.428 32.5635 113.529 33.7694 115.748 33.7694C117.071 33.7694 118.2 33.4587 119.017 33.0688L119.562 35.7154C118.433 36.2992 116.721 36.6112 115.047 36.6112C110.3 36.6112 107.809 33.0306 107.809 27.1926C107.809 21.0043 110.649 17.1902 114.58 17.1902C118.511 17.1902 120.34 20.9654 120.34 25.7143C120.34 26.6477 120.301 27.2322 120.262 27.7375L111.389 27.6986ZM116.876 25.0916C116.915 21.7445 115.748 19.9548 114.308 19.9548C112.401 19.9548 111.544 22.7181 111.428 25.0916H116.876Z" fill="black"/>
<path fill-rule="evenodd" clip-rule="evenodd" d="M25.4892 10.2559H36.4172V36.4165L25.4892 10.2559ZM17.7908 10.2559H6.85498V36.4165L17.7908 10.2559ZM21.6406 19.897L28.6034 36.4165H24.0407L21.9585 31.1552H16.8619L21.6406 19.897Z" fill="#CC2131"/>
<path fill-rule="evenodd" clip-rule="evenodd" d="M120.03 17.1427C120.139 17.1432 120.248 17.1655 120.349 17.2081C120.45 17.2507 120.541 17.313 120.618 17.3912C120.695 17.4694 120.756 17.5621 120.796 17.6638C120.837 17.7656 120.857 17.8744 120.856 17.984C120.856 18.4589 120.49 18.8293 120.026 18.8293C119.566 18.8293 119.192 18.4595 119.192 17.984C119.191 17.874 119.212 17.7649 119.254 17.663C119.295 17.5612 119.357 17.4685 119.434 17.3903C119.512 17.3122 119.604 17.2501 119.705 17.2076C119.807 17.1651 119.916 17.1431 120.026 17.1427H120.03ZM120.026 17.2731C119.656 17.2731 119.352 17.5916 119.352 17.984C119.352 18.3843 119.656 18.6982 120.03 18.6982C120.403 18.7021 120.702 18.3843 120.702 17.9879C120.702 17.5916 120.403 17.2731 120.03 17.2731H120.026ZM119.869 18.4744H119.72V17.5352C119.798 17.5241 119.873 17.5125 119.986 17.5125C120.128 17.5125 120.22 17.543 120.277 17.5838C120.333 17.6247 120.363 17.6883 120.363 17.7784C120.363 17.9017 120.281 17.9769 120.179 18.0068V18.0139C120.262 18.0288 120.318 18.104 120.336 18.2422C120.359 18.3882 120.381 18.444 120.397 18.4744H120.24C120.217 18.444 120.195 18.3583 120.176 18.2351C120.154 18.1151 120.094 18.0703 119.974 18.0703H119.869V18.4744H119.869ZM119.869 17.9542H119.977C120.1 17.9542 120.206 17.9094 120.206 17.7933C120.206 17.711 120.146 17.6286 119.977 17.6286C119.929 17.6286 119.895 17.6325 119.869 17.6364V17.9542ZM37.8581 10.2559C37.9677 10.2564 38.0762 10.2786 38.1772 10.3212C38.2782 10.3639 38.3698 10.4261 38.4466 10.5043C38.5235 10.5825 38.584 10.6752 38.6249 10.777C38.6657 10.8787 38.686 10.9875 38.6845 11.0972C38.6845 11.572 38.318 11.9424 37.8542 11.9424C37.3943 11.9424 37.02 11.5726 37.02 11.0972C37.0194 10.9871 37.0406 10.878 37.0822 10.7762C37.1238 10.6743 37.1851 10.5816 37.2626 10.5035C37.3401 10.4253 37.4322 10.3632 37.5337 10.3207C37.6353 10.2782 37.7442 10.2562 37.8542 10.2559H37.8581ZM37.8542 10.3862C37.4838 10.3862 37.1809 10.7047 37.1809 11.0972C37.1809 11.4974 37.4838 11.8114 37.8581 11.8114C38.2317 11.8152 38.5314 11.4974 38.5314 11.1011C38.5314 10.7047 38.2317 10.3862 37.8581 10.3862H37.8542ZM37.6972 11.5876H37.5474V10.6483C37.6353 10.6337 37.7242 10.6263 37.8134 10.6262C37.9554 10.6262 38.0488 10.6554 38.1046 10.697C38.161 10.7378 38.1909 10.802 38.1909 10.8915C38.1909 11.0148 38.1085 11.09 38.0073 11.1199V11.127C38.0897 11.1419 38.1461 11.2172 38.1649 11.356C38.187 11.5019 38.2097 11.5577 38.2246 11.5882H38.0676C38.0449 11.5577 38.0222 11.4721 38.0041 11.3489C37.9814 11.2289 37.9217 11.1841 37.8017 11.1841H37.6972V11.5876ZM37.6972 11.0673H37.8056C37.9288 11.0673 38.0339 11.0226 38.0339 10.9065C38.0339 10.8241 37.9742 10.7417 37.8056 10.7417C37.7569 10.7417 37.7232 10.7456 37.6972 10.7495V11.0673Z" fill="black"/>
</g>
<defs>
<clipPath id="clip0_95_1063">
<rect width="123.077" height="40" fill="white" transform="translate(0.359375 0.589844)"/>
</clipPath>
</defs>
</svg>
