<svg width="136" height="42" viewBox="0 0 136 42" fill="none" xmlns="http://www.w3.org/2000/svg">
<path d="M30.8685 10.6044V23.1791C30.8685 23.3829 30.7875 23.5784 30.6434 23.7226C30.4993 23.8667 30.3038 23.9477 30.0999 23.9477H26.1304C25.9266 23.9476 25.7312 23.8666 25.5871 23.7225C25.443 23.5783 25.362 23.3829 25.3619 23.1791V2.72571C25.3619 2.52188 25.4429 2.32639 25.587 2.18226C25.7311 2.03813 25.9266 1.95716 26.1304 1.95716H29.8038C30.0076 1.95716 30.2031 2.03813 30.3472 2.18226C30.4913 2.32639 30.5723 2.52188 30.5723 2.72571V5.60609C30.5723 5.60609 31.8854 1.49731 35.7824 1.49731C35.7824 1.49731 39.637 1.03137 41.2043 5.30958C41.2043 5.30958 42.5174 1.49731 46.4991 1.49731C46.4991 1.49731 52.4205 1.14523 52.4205 7.2723L52.4656 10.6467V23.2215C52.4656 23.4253 52.3846 23.6208 52.2405 23.7649C52.0963 23.909 51.9009 23.99 51.697 23.99H47.7272C47.5234 23.9899 47.3279 23.9089 47.1838 23.7648C47.0397 23.6207 46.9587 23.4253 46.9586 23.2215L46.9224 9.50307C47.0352 6.39667 44.5222 6.62269 44.5222 6.62269C41.3595 6.67928 41.6638 10.6467 41.6638 10.6467V23.2215C41.6638 23.4253 41.5828 23.6208 41.4387 23.7649C41.2946 23.909 41.0991 23.99 40.8953 23.99H36.9258C36.722 23.9899 36.5265 23.9089 36.3824 23.7648C36.2383 23.6207 36.1573 23.4253 36.1572 23.2215V9.81347C36.1572 9.81347 36.3893 6.59423 33.5652 6.59423C33.5655 6.59423 30.7699 6.22723 30.8685 10.6044ZM133.191 10.5668V23.1412C133.191 23.345 133.11 23.5404 132.966 23.6845C132.822 23.8286 132.627 23.9096 132.423 23.9097L128.294 23.9897C128.091 23.9896 127.895 23.9086 127.751 23.7645C127.607 23.6204 127.526 23.4249 127.526 23.2211V9.81347C127.526 9.81347 127.758 6.59423 124.934 6.59423C124.934 6.59423 122.237 6.46139 122.237 11.5088V23.1788C122.237 23.3826 122.156 23.578 122.012 23.7221C121.868 23.8662 121.672 23.9472 121.469 23.9473H117.499C117.295 23.9472 117.1 23.8662 116.955 23.7221C116.811 23.578 116.73 23.3826 116.73 23.1788V2.72571C116.73 2.5219 116.811 2.32647 116.955 2.18236C117.1 2.03825 117.295 1.95725 117.499 1.95716H121.172C121.376 1.95716 121.571 2.03813 121.716 2.18226C121.86 2.32639 121.941 2.52188 121.941 2.72571V5.60609C121.941 5.60609 123.254 1.49731 127.151 1.49731C127.151 1.49731 131.325 0.863968 132.731 5.22994C132.732 5.2296 133.191 6.13032 133.191 10.5668ZM104.53 1.41259C99.4537 1.41259 95.3381 5.6908 95.3381 12.8917C95.3381 19.2316 98.515 24.3709 104.53 24.3709C110.206 24.3709 113.722 19.2316 113.722 12.8917C113.722 5.81788 109.607 1.41259 104.53 1.41259ZM107.734 13.1459C107.734 15.8568 107.395 17.297 107.395 17.297C106.913 20.1628 104.833 20.1669 104.526 20.1517C104.195 20.1649 102.097 20.1351 101.663 17.297C101.663 17.297 101.324 15.8568 101.324 13.1459V12.6942C101.324 9.98325 101.663 8.54306 101.663 8.54306C102.097 5.70504 104.195 5.67522 104.526 5.68809C104.833 5.67284 106.913 5.67657 107.395 8.54306C107.395 8.54306 107.734 9.98325 107.734 12.6942V13.1459ZM93.0342 5.57762V2.64302C93.0341 2.43922 92.9531 2.24379 92.809 2.09967C92.6649 1.95556 92.4694 1.87456 92.2656 1.87447H79.1446C78.9408 1.87447 78.7453 1.95544 78.6012 2.09958C78.4571 2.24371 78.3761 2.43919 78.3761 2.64302V5.55492C78.3762 5.75872 78.4572 5.95416 78.6013 6.09827C78.7454 6.24238 78.9408 6.32338 79.1446 6.32347H85.9888L77.8878 18.0754C77.8878 18.0754 77.5686 18.5519 77.5791 19.0781V22.6528C77.5791 22.6528 77.5262 23.8785 78.9163 23.1672C78.9163 23.1672 81.3852 21.6755 85.5252 21.6755C85.5252 21.6755 89.6136 21.6247 92.3395 23.2957C92.3395 23.2957 93.471 23.8101 93.471 22.6789V19.5675C93.471 19.5675 93.5737 18.744 92.4937 18.2299C92.4937 18.2299 89.3564 16.5071 85.2422 16.7897L93.0342 5.57762ZM22.2982 20.2899L21.0556 18.3984C20.6601 17.6922 20.6886 16.9012 20.6886 16.9012V8.17572C20.858 0.635909 12.4991 1.28552 12.4991 1.28552C5.06843 1.28552 3.97084 7.0683 3.97084 7.0683C3.66111 8.23096 4.56183 8.25908 4.56183 8.25908L8.1928 8.62743C8.1928 8.62743 8.81191 8.76908 9.03726 8.03204C9.03726 8.03204 9.5154 5.50917 12.1894 5.50917C15.0989 5.50917 15.0688 8.00629 15.0688 8.00629V10.0968C9.26057 10.2909 6.56894 11.9033 6.56894 11.9033C2.9827 13.9365 3.20839 17.9748 3.20839 17.9748C3.20839 24.5542 9.47745 24.2716 9.47745 24.2716C13.4873 24.2716 15.8593 21.335 15.8593 21.335C16.5652 22.578 17.8644 23.7633 17.8644 23.7633C18.5144 24.4682 19.1918 23.8765 19.1918 23.8765L22.1287 21.3635C22.778 20.8829 22.2982 20.2899 22.2982 20.2899ZM11.4344 20.2086C9.54827 20.2086 8.84715 18.3343 9.16027 16.4922C9.47372 14.6501 11.1016 13.2025 15.0691 13.2449V14.3648C15.2097 19.2574 13.0044 20.2086 11.4344 20.2086ZM75.0484 20.2899L73.8061 18.3984C73.4107 17.6922 73.4388 16.9012 73.4388 16.9012V8.17572C73.6082 0.635909 65.2494 1.28552 65.2494 1.28552C57.8187 1.28552 56.7211 7.0683 56.7211 7.0683C56.4113 8.23096 57.3121 8.25908 57.3121 8.25908L60.943 8.62743C60.943 8.62743 61.5621 8.76908 61.7875 8.03204C61.7875 8.03204 62.2656 5.50917 64.9396 5.50917C67.8492 5.50917 67.819 8.00629 67.819 8.00629V10.0968C62.0111 10.2909 59.3192 11.9033 59.3192 11.9033C55.7329 13.9365 55.9586 17.9748 55.9586 17.9748C55.9586 24.5542 62.2277 24.2716 62.2277 24.2716C66.2375 24.2716 68.6096 21.335 68.6096 21.335C69.3158 22.578 70.6143 23.7633 70.6143 23.7633C71.2643 24.4682 71.942 23.8765 71.942 23.8765L74.8786 21.3635C75.5283 20.8829 75.0484 20.2899 75.0484 20.2899ZM64.1846 20.2086C62.2985 20.2086 61.5974 18.3343 61.9105 16.4922C62.224 14.6501 63.8519 13.2025 67.819 13.2449V14.3648C67.96 19.2574 65.755 20.2086 64.1846 20.2086Z" fill="black"/>
<path d="M85.0434 36.8052C85.0434 36.8052 84.7113 37.383 85.1193 37.5121C85.1193 37.5121 85.5801 37.692 86.1548 37.1586C86.1548 37.1586 90.3463 33.4972 90.4473 26.8309C90.4473 26.8309 90.4781 25.9984 90.144 25.7706C90.144 25.7706 88.8309 24.609 84.1091 24.9624C84.1091 24.9624 79.9932 25.2403 77.7462 27.2352C77.7462 27.2352 77.5442 27.4118 77.5442 27.6388C77.5442 27.6388 77.4957 28.1292 78.7309 27.9167C78.7309 27.9167 82.8465 27.3355 85.2958 27.6388C85.2958 27.6388 86.5588 27.7903 86.9122 28.22C86.9122 28.22 87.493 28.6998 87.1897 30.2901C87.1897 30.2908 86.3561 34.3308 85.0434 36.8052Z" fill="#F3971B"/>
<path d="M84.2136 30.4097C84.2136 30.4097 84.8283 31.2061 83.8364 31.8929C83.8364 31.8929 73.241 40.368 55.4504 40.368C55.4504 40.368 37.1373 41.2715 21.8459 27.3779C21.8459 27.3779 21.3098 26.9072 21.6426 26.4697C21.6426 26.4697 21.9401 26.0671 22.7104 26.5049C22.7104 26.5049 37.095 35.4683 55.9869 35.4683C55.9869 35.4683 69.118 35.9766 82.588 30.2159C82.588 30.2159 83.6612 29.6598 84.2136 30.4097Z" fill="#F3971B"/>
</svg>
