<svg width="120" height="41" viewBox="0 0 120 41" fill="none" xmlns="http://www.w3.org/2000/svg">
<g clip-path="url(#clip0_95_1060)">
<path d="M28.1954 21.8654C28.1463 16.7234 32.3962 14.2528 32.5874 14.1352C30.1953 10.6402 26.4797 10.1598 25.1562 10.1059C21.9946 9.78239 18.9848 11.9686 17.377 11.9686C15.7692 11.9686 13.2938 10.15 10.6714 10.2039C7.22048 10.253 4.03921 12.2088 2.25985 15.2969C-1.31848 21.5026 1.34811 30.718 4.8431 35.762C6.55384 38.2276 8.58319 41.0069 11.2596 40.904C13.8379 40.8011 14.8085 39.2374 17.9162 39.2374C21.024 39.2374 21.9014 40.904 24.6219 40.855C27.3915 40.8011 29.1463 38.3355 30.8423 35.86C32.7933 32.9925 33.6021 30.223 33.6511 30.0759C33.5873 30.0514 28.2542 28.0073 28.1954 21.8654Z" fill="black"/>
<path d="M23.0827 6.76246C24.5043 5.04193 25.4601 2.65474 25.2003 0.272461C23.1563 0.355792 20.6809 1.63517 19.2152 3.3557C17.9015 4.87526 16.7496 7.30657 17.0633 9.63983C19.3329 9.81629 21.6661 8.4781 23.0827 6.76246ZM46.1213 26.9187L43.7684 34.0509H40.744L48.4447 11.3849H51.974L59.7042 34.0509H56.5768L54.1554 26.9187H46.1213ZM53.5524 24.6296L51.3368 18.1053C50.8319 16.6249 50.4986 15.2818 50.1604 13.9681H50.0966C49.7584 15.3112 49.3908 16.6886 48.9545 18.0709L46.7389 24.6247L53.5524 24.6296ZM61.9983 23.0855C61.9983 21.0022 61.9345 19.316 61.861 17.7719H64.5178L64.655 20.566H64.7188C65.9295 18.5807 67.8461 17.4043 70.5029 17.4043C74.4391 17.4043 77.3949 20.7326 77.3949 25.6786C77.3949 31.5313 73.8312 34.4185 69.998 34.4185C67.8461 34.4185 65.9638 33.4774 64.9884 31.8647H64.9246V40.7075H61.9983V23.0855ZM64.9197 27.4236C64.9197 27.8648 64.9835 28.2618 65.057 28.6344C65.5962 30.6833 67.3755 32.0999 69.498 32.0999C72.6254 32.0999 74.444 29.5461 74.444 25.8109C74.444 22.5463 72.7283 19.7621 69.601 19.7621C67.5863 19.7621 65.704 21.2081 65.1256 23.4286C65.0227 23.7963 64.9246 24.2374 64.9246 24.6394L64.9197 27.4236ZM80.4536 23.0855C80.4536 21.0022 80.3899 19.316 80.3163 17.7719H82.9731L83.1104 20.566H83.1741C84.3848 18.5807 86.3015 17.4043 88.9582 17.4043C92.8944 17.4043 95.8502 20.7326 95.8502 25.6786C95.8502 31.5313 92.2866 34.4185 88.4534 34.4185C86.3015 34.4185 84.4192 33.4774 83.4437 31.8647H83.38V40.7075H80.4536V23.0855ZM83.38 27.4236C83.38 27.8648 83.4437 28.2618 83.5172 28.6344C84.0564 30.6833 85.8358 32.0999 87.9583 32.0999C91.0856 32.0999 92.9042 29.5461 92.9042 25.8109C92.9042 22.5463 91.1886 19.7621 88.0612 19.7621C86.0466 19.7621 84.1643 21.2081 83.5858 23.4286C83.4829 23.7963 83.3849 24.2374 83.3849 24.6394L83.38 27.4236ZM98.9138 10.1741H101.875V34.046H98.9138V10.1741ZM107.825 26.4482C107.889 30.448 110.448 32.0999 113.404 32.0999C115.521 32.0999 116.801 31.7323 117.908 31.2617L118.413 33.3793C117.374 33.8499 115.59 34.3891 113.002 34.3891C107.992 34.3891 104.997 31.0951 104.997 26.1835C104.997 21.2718 107.889 17.4043 112.629 17.4043C117.943 17.4043 119.354 22.0757 119.354 25.0707C119.354 25.6786 119.291 26.1442 119.251 26.4482H107.825ZM116.502 24.3306C116.536 22.4483 115.727 19.5219 112.399 19.5219C109.404 19.5219 108.095 22.2816 107.86 24.3306H116.502Z" fill="black"/>
</g>
<defs>
<clipPath id="clip0_95_1060">
<rect width="118.795" height="40.636" fill="white" transform="translate(0.563965 0.272461)"/>
</clipPath>
</defs>
</svg>
