<svg width="210" height="42" viewBox="0 0 210 42" fill="none" xmlns="http://www.w3.org/2000/svg">
<g clip-path="url(#clip0_95_1057)">
<path d="M13.8756 40.5594H5.99897V20.924H0.633301V14.5312H5.99876V9.9822C5.99876 4.59165 8.37192 0.725586 16.2272 0.725586C17.8886 0.725586 20.4969 1.06046 20.4969 1.06046V6.99658H17.7573C14.9659 6.99658 13.876 7.84567 13.876 10.1931V14.5312H20.3924L19.8121 20.924H13.8758L13.8756 40.5594ZM31.9486 14.0203C31.8338 14.0203 31.7157 14.0245 31.5988 14.0274C24.2952 14.0274 20.9536 19.5212 20.9536 27.3198C20.9536 37.144 25.2881 41.0759 31.6559 41.0759C35.2992 41.0759 37.6928 39.5424 39.1477 36.6807V40.5621H46.6394V14.5339H39.1477V18.5367C37.9597 15.9614 35.4992 14.0508 31.9486 14.0203ZM33.8535 20.1707C36.921 20.1707 38.7622 22.3103 38.7622 25.9498L38.7693 29.6671C38.7693 32.1201 37.2486 34.9899 33.8535 34.9899C28.6339 34.9899 28.7733 29.3539 28.7733 27.4768C28.7733 21.1625 31.5543 20.1707 33.8535 20.1707ZM49.665 27.5493C49.665 24.3865 49.5136 14.0372 62.9971 14.0372C68.4096 14.0372 70.6697 15.7582 70.6697 15.7582L68.8532 21.3923C68.8532 21.3923 66.596 20.1494 63.6549 20.1494C59.8879 20.1494 57.4843 22.3331 57.4843 26.1754L57.4884 28.9304C57.4884 32.6224 59.8077 35.0869 63.6627 35.0869C66.342 35.0869 68.8116 33.8323 68.8116 33.8323L70.6235 39.3486C70.6235 39.3486 68.557 41.0805 63.0349 41.0805C50.1965 41.0805 49.6652 31.7952 49.6652 27.5493H49.665ZM114.597 14.0274C121.9 14.0274 125.295 19.5212 125.295 27.3198C125.295 37.144 120.96 41.0759 114.592 41.0759C110.949 41.0759 108.256 39.5426 106.801 36.6807V40.5621L99.4034 40.5591V1.51699L107.258 0.831984V18.184C108.391 15.1482 112.116 14.0274 114.597 14.0274ZM112.395 20.1707C109.327 20.1707 107.258 22.3103 107.258 25.9498L107.25 29.6671C107.246 32.1201 108.683 34.9899 112.395 34.9899C117.614 34.9899 117.475 29.3539 117.475 27.4768C117.475 21.1625 114.694 20.1707 112.395 20.1707ZM84.2974 14.0489C76.0134 14.0489 71.64 18.5655 71.64 26.592V28.0832C71.64 38.5008 77.7816 41.1829 85.1036 41.1829C92.2206 41.1829 95.442 39.1923 95.442 39.1923L93.9723 33.8912C93.9723 33.8912 90.1829 35.5035 86.0453 35.5035C81.7559 35.5035 79.9112 34.4102 79.4384 30.2881H96.0699V26.0353C96.0699 17.3287 91.1616 14.0487 84.2972 14.0487L84.2974 14.0489ZM84.497 19.3571C87.3645 19.3571 89.2226 21.1155 89.1206 25.1935H79.4528C79.6204 20.9015 81.6242 19.3571 84.497 19.3571ZM140.956 14.0132C132.449 14.0132 127.97 18.8072 127.97 27.3982C127.97 39.1856 135.69 41.083 140.97 41.083C148.699 41.083 153.841 36.9218 153.841 27.5052C153.841 17.7043 148.059 14.0132 140.956 14.0132ZM140.849 20.192C144.589 20.192 146.071 22.9916 146.071 26.1783V28.9181C146.071 32.7785 143.997 35.0114 140.834 35.0114C137.876 35.0114 135.797 32.9228 135.797 28.9181V26.1783C135.797 21.9073 138.271 20.192 140.849 20.192ZM169.488 14.0132C160.981 14.0132 156.503 18.8072 156.503 27.3982C156.503 39.1856 164.223 41.083 169.502 41.083C177.231 41.083 182.374 36.9218 182.374 27.5052C182.374 17.7043 176.592 14.0132 169.488 14.0132ZM169.381 20.192C173.122 20.192 174.604 22.9916 174.604 26.1783V28.9181C174.604 32.7785 172.53 35.0114 169.367 35.0114C166.409 35.0114 164.33 32.9228 164.33 28.9181V26.1783C164.33 21.9073 166.804 20.192 169.381 20.192ZM185.342 40.5594V1.51699L193.219 0.831984V27.0006L201.034 14.5312H209.352L201.2 27.4459L209.666 40.5594H201.324L193.219 27.8263V40.5594H185.342Z" fill="#1877F2"/>
</g>
<defs>
<clipPath id="clip0_95_1057">
<rect width="209.033" height="40.636" fill="white" transform="translate(0.633301 0.635742)"/>
</clipPath>
</defs>
</svg>
