<svg width="168" height="41" viewBox="0 0 168 41" fill="none" xmlns="http://www.w3.org/2000/svg">
<g clip-path="url(#clip0_95_1037)">
<path d="M164.38 35.1266C163.653 35.1336 162.958 35.4283 162.448 35.9462C161.937 36.4641 161.653 37.163 161.656 37.8902C161.66 38.6173 161.951 39.3135 162.466 39.8264C162.982 40.3394 163.679 40.6274 164.407 40.6274C165.134 40.6274 165.831 40.3394 166.347 39.8264C166.862 39.3135 167.153 38.6173 167.157 37.8902C167.16 37.163 166.876 36.4641 166.365 35.9462C165.855 35.4283 165.16 35.1336 164.433 35.1266H164.38ZM164.38 40.3125C163.903 40.3204 163.435 40.1867 163.034 39.9284C162.633 39.67 162.317 39.2985 162.127 38.861C161.938 38.4234 161.882 37.9393 161.967 37.47C162.052 37.0007 162.275 36.5672 162.606 36.2243C162.938 35.8815 163.364 35.6446 163.83 35.5438C164.296 35.443 164.782 35.4827 165.226 35.6578C165.669 35.833 166.051 36.1358 166.323 36.5279C166.594 36.9201 166.743 37.3839 166.751 37.8609V37.9013C166.765 38.527 166.529 39.1323 166.096 39.5843C165.663 40.0362 165.069 40.2977 164.443 40.3112H164.381M153.822 34.3752H147.846V25.0158C147.846 22.784 147.806 19.9109 144.737 19.9109C141.625 19.9109 141.148 22.3426 141.148 24.8534V34.3746H135.172V15.1279H140.909V17.7582H140.99C141.564 16.7764 142.394 15.9688 143.39 15.4213C144.387 14.8738 145.514 14.607 146.651 14.6492C152.708 14.6492 153.825 18.6335 153.825 23.8168L153.822 34.3752ZM128.429 12.497C127.743 12.4971 127.072 12.2938 126.502 11.9129C125.931 11.5319 125.487 10.9903 125.224 10.3566C124.961 9.72291 124.892 9.02558 125.026 8.35279C125.16 7.68 125.49 7.06196 125.975 6.57684C126.46 6.09171 127.078 5.76128 127.751 5.62734C128.423 5.4934 129.121 5.56196 129.755 5.82434C130.388 6.08673 130.93 6.53116 131.311 7.10144C131.692 7.67172 131.896 8.34223 131.896 9.02817C131.896 9.48363 131.807 9.93463 131.632 10.3554C131.458 10.7763 131.203 11.1586 130.881 11.4808C130.559 11.8029 130.176 12.0584 129.756 12.2328C129.335 12.4071 128.884 12.4969 128.429 12.497ZM131.417 34.3752H125.434V15.1279H131.417V34.3752ZM156.802 0.0105595H122.431C121.651 0.00175585 120.899 0.303029 120.341 0.848177C119.783 1.39333 119.464 2.13775 119.454 2.91786V37.4313C119.464 38.2118 119.782 38.9567 120.34 39.5025C120.898 40.0482 121.65 40.35 122.431 40.3417H156.802C157.584 40.3515 158.338 40.0505 158.898 39.5048C159.458 38.9591 159.779 38.2134 159.79 37.4313V2.91537C159.779 2.13371 159.458 1.38844 158.898 0.843308C158.337 0.298174 157.583 -0.00223983 156.802 0.00806933M103.188 19.7734C100.2 19.7734 98.4067 21.7686 98.4067 24.6759C98.4067 27.5832 100.199 29.5804 103.188 29.5804C106.177 29.5804 107.973 27.5882 107.973 24.6759C107.973 21.7636 106.18 19.7734 103.188 19.7734ZM113.476 34.364H107.973V31.8116H107.892C107.202 32.74 106.306 33.4965 105.276 34.0222C104.245 34.5478 103.107 34.8284 101.95 34.8421C96.2079 34.8421 92.4253 30.6978 92.4253 24.8372C92.4253 19.4546 95.7727 14.5122 101.275 14.5122C103.749 14.5122 106.059 15.1889 107.414 17.0647H107.493V5.97022H113.475L113.476 34.364ZM84.7518 22.5057C84.7632 22.0209 84.6761 21.5387 84.4957 21.0885C84.3153 20.6383 84.0454 20.2294 83.7023 19.8865C83.3593 19.5437 82.9502 19.2741 82.4999 19.094C82.0495 18.9139 81.5673 18.8271 81.0825 18.8389C80.0382 18.7739 79.0103 19.1219 78.2202 19.8079C77.4302 20.4938 76.9413 21.4627 76.8591 22.5057H84.7518ZM89.8143 31.0346C88.8212 32.239 87.5727 33.2073 86.1591 33.8696C84.7456 34.5319 83.2025 34.8716 81.6415 34.8639C75.665 34.8639 70.8801 30.8746 70.8801 24.6971C70.8801 18.5195 75.6644 14.5321 81.6415 14.5321C87.2276 14.5321 90.7307 18.5164 90.7307 24.6971V26.571H76.8591C77.0318 27.6337 77.5828 28.5982 78.4104 29.2868C79.2381 29.9754 80.2868 30.3416 81.3632 30.3181C82.2139 30.3128 83.0497 30.0949 83.7946 29.6841C84.5396 29.2733 85.1699 28.6827 85.6283 27.9661L89.8143 31.0346ZM30.402 15.1229H36.1413V17.7532H36.2229C36.7961 16.7711 37.6254 15.9631 38.6221 15.4155C39.6187 14.8679 40.7454 14.6013 41.8818 14.6442C47.9423 14.6442 49.0579 18.6316 49.0579 23.8118V34.3665H43.0815V25.009C43.0815 22.7753 43.0404 19.9041 39.9687 19.9041C36.8622 19.9041 36.3829 22.3364 36.3829 24.8465V34.364H30.4064L30.402 15.1229ZM52.0885 5.97208H58.065V22.9459L64.8383 15.1123H72.1657L64.3216 24.0229L72.0007 34.3759H64.489L58.1447 24.8621H58.0662V34.3746H52.0897L52.0885 5.97208ZM21.1117 15.1211H27.0882V34.3678H21.1117V15.1211ZM24.1 5.55249C24.7856 5.55261 25.4559 5.75605 26.0259 6.13708C26.596 6.51811 27.0403 7.05962 27.3026 7.69314C27.5649 8.32665 27.6335 9.02373 27.4996 9.69621C27.3658 10.3687 27.0355 10.9864 26.5506 11.4712C26.0658 11.956 25.448 12.2861 24.7755 12.4199C24.103 12.5536 23.4059 12.4849 22.7725 12.2225C22.139 11.96 21.5976 11.5157 21.2166 10.9455C20.8357 10.3754 20.6324 9.70513 20.6324 9.01946C20.6324 8.56412 20.7221 8.11323 20.8963 7.69256C21.0706 7.27189 21.326 6.88966 21.648 6.56772C21.9701 6.24577 22.3523 5.99041 22.773 5.81621C23.1937 5.64202 23.6446 5.5524 24.1 5.55249ZM0.623047 5.97644H6.84417V28.6372H18.3613V34.3783H0.623047V5.97644ZM164.816 38.0514C164.919 38.0524 165.02 38.0324 165.115 37.9926C165.209 37.9527 165.294 37.894 165.365 37.8199C165.435 37.7458 165.49 37.658 165.525 37.5619C165.56 37.4659 165.576 37.3636 165.57 37.2614C165.57 36.7011 165.232 36.4334 164.538 36.4334H163.418V39.3668H163.839V38.0881H164.357L164.369 38.1037L165.173 39.3668H165.623L164.759 38.0595L164.816 38.0514ZM164.329 37.7575H163.84V36.7658H164.46C164.78 36.7658 165.145 36.8181 165.145 37.2371C165.145 37.7189 164.775 37.7575 164.327 37.7575" fill="#0A66C2"/>
</g>
<defs>
<clipPath id="clip0_95_1037">
<rect width="166.541" height="40.636" fill="white" transform="translate(0.623047)"/>
</clipPath>
</defs>
</svg>
