<svg width="191" height="42" viewBox="0 0 191 42" fill="none" xmlns="http://www.w3.org/2000/svg">
<g clip-path="url(#clip0_95_1046)">
<path d="M67.461 24.0412L66.327 27.2543H66.2325C66.0435 26.5298 65.697 25.4272 65.13 24.1042L59.0503 8.82632H53.0967V33.1764H57.0343V18.1506C57.0343 17.2055 57.0343 16.1345 57.0028 14.8115C56.9713 14.15 56.9083 13.6459 56.8768 13.2679H56.9713C57.1603 14.213 57.3808 14.906 57.5383 15.347L64.8465 33.1134H67.6185L74.8637 15.1895C75.0212 14.78 75.1787 13.961 75.3362 13.2679H75.4308C75.3362 15.0635 75.2732 16.67 75.2417 17.6465V33.0819H79.4314V8.76332H73.6982L67.461 24.0412ZM83.4005 15.6305H87.4956V33.0819H83.4005V15.6305ZM85.4795 8.25931C84.7865 8.25931 84.2195 8.51131 83.747 8.95232C83.2744 9.39334 83.0224 9.96035 83.0224 10.6534C83.0224 11.3149 83.2744 11.8819 83.747 12.3229C84.2195 12.7639 84.7865 12.9844 85.4795 12.9844C86.1725 12.9844 86.771 12.7324 87.2121 12.3229C87.6846 11.8819 87.9366 11.3149 87.9366 10.6534C87.9366 9.99185 87.6846 9.42484 87.2121 8.95232C86.8025 8.51131 86.204 8.25931 85.4795 8.25931ZM102.017 15.473C101.261 15.3155 100.474 15.221 99.7179 15.221C97.8593 15.221 96.1583 15.6305 94.7407 16.4495C93.3232 17.2685 92.1892 18.4026 91.4647 19.8201C90.7086 21.2691 90.3306 22.9387 90.3306 24.8602C90.3306 26.5298 90.7086 28.0103 91.4332 29.3648C92.1577 30.6879 93.1657 31.7589 94.5202 32.4834C95.8118 33.2079 97.3238 33.586 99.0249 33.586C100.978 33.586 102.647 33.1764 103.97 32.4204L104.002 32.3889V28.6088L103.844 28.7348C103.246 29.1758 102.553 29.5539 101.86 29.7744C101.135 30.0264 100.474 30.1524 99.9069 30.1524C98.2688 30.1524 96.9773 29.6799 96.0638 28.6403C95.1188 27.6323 94.6462 26.2463 94.6462 24.5137C94.6462 22.7182 95.1188 21.3006 96.0953 20.2611C97.0718 19.2216 98.3633 18.6861 99.9384 18.6861C101.261 18.6861 102.616 19.1271 103.844 20.0091L104.002 20.1351V16.1345L103.97 16.103C103.435 15.8825 102.836 15.6305 102.017 15.473ZM115.531 15.347C114.523 15.347 113.578 15.662 112.759 16.3235C112.066 16.8905 111.594 17.7095 111.184 18.6861H111.153V15.6305H107.058V33.0819H111.153V24.1672C111.153 22.6552 111.468 21.3951 112.161 20.4816C112.854 19.5366 113.736 19.0641 114.807 19.0641C115.185 19.0641 115.563 19.1586 116.035 19.2216C116.476 19.3476 116.791 19.4736 117.012 19.6311L117.169 19.7571V15.662L117.075 15.6305C116.791 15.4415 116.224 15.347 115.531 15.347ZM126.683 15.2525C123.816 15.2525 121.516 16.103 119.91 17.7726C118.272 19.4421 117.484 21.7417 117.484 24.6397C117.484 27.3488 118.303 29.5539 119.878 31.1604C121.453 32.7354 123.595 33.5545 126.273 33.5545C129.077 33.5545 131.313 32.7039 132.92 31.0029C134.558 29.3018 135.345 27.0338 135.345 24.2302C135.345 21.4581 134.589 19.2531 133.046 17.6465C131.565 16.04 129.392 15.2525 126.683 15.2525ZM129.959 28.6718C129.203 29.6484 128.006 30.1209 126.525 30.1209C125.045 30.1209 123.847 29.6484 122.997 28.6088C122.146 27.6323 121.737 26.2148 121.737 24.4192C121.737 22.5607 122.178 21.1431 122.997 20.1351C123.847 19.1271 125.013 18.6231 126.494 18.6231C127.943 18.6231 129.077 19.0956 129.896 20.0721C130.715 21.0486 131.156 22.4662 131.156 24.3247C131.093 26.2148 130.746 27.6953 129.959 28.6718ZM144.481 22.8757C143.189 22.3402 142.37 21.9307 141.992 21.5841C141.677 21.2691 141.519 20.8281 141.519 20.2611C141.519 19.7886 141.708 19.3161 142.181 19.0011C142.653 18.6861 143.189 18.5286 143.977 18.5286C144.67 18.5286 145.394 18.6546 146.087 18.8436C146.78 19.0326 147.41 19.3161 147.914 19.6941L148.072 19.8201V15.977L147.977 15.9455C147.505 15.7565 146.875 15.5675 146.119 15.41C145.363 15.284 144.67 15.221 144.103 15.221C142.149 15.221 140.543 15.6935 139.283 16.733C138.023 17.7095 137.424 19.0326 137.424 20.5761C137.424 21.3951 137.55 22.1197 137.834 22.7182C138.117 23.3167 138.527 23.8837 139.094 24.3562C139.661 24.7972 140.48 25.3012 141.614 25.7738C142.559 26.1833 143.283 26.4983 143.724 26.7503C144.166 27.0023 144.449 27.2858 144.67 27.5063C144.827 27.7583 144.922 28.0733 144.922 28.4828C144.922 29.6484 144.04 30.2154 142.244 30.2154C141.551 30.2154 140.826 30.0894 139.976 29.8059C139.125 29.5224 138.338 29.1128 137.676 28.6403L137.519 28.5143V32.5149L137.613 32.5464C138.212 32.8299 138.936 33.0189 139.818 33.2394C140.7 33.397 141.488 33.523 142.181 33.523C144.292 33.523 146.024 33.0504 147.253 32.0109C148.513 31.0029 149.174 29.7114 149.174 28.0418C149.174 26.8763 148.859 25.8368 148.166 25.0492C147.253 24.2932 146.119 23.5057 144.481 22.8757ZM159.979 15.2525C157.112 15.2525 154.813 16.103 153.206 17.7726C151.6 19.4421 150.781 21.7417 150.781 24.6397C150.781 27.3488 151.6 29.5539 153.175 31.1604C154.75 32.7354 156.892 33.5545 159.569 33.5545C162.373 33.5545 164.61 32.7039 166.216 31.0029C167.854 29.3018 168.642 27.0338 168.642 24.2302C168.642 21.4581 167.886 19.2531 166.342 17.6465C164.862 16.04 162.688 15.2525 159.979 15.2525ZM163.224 28.6718C162.467 29.6484 161.27 30.1209 159.79 30.1209C158.278 30.1209 157.112 29.6484 156.262 28.6088C155.411 27.6323 155.002 26.2148 155.002 24.4192C155.002 22.5607 155.443 21.1431 156.262 20.1351C157.112 19.1271 158.278 18.6231 159.758 18.6231C161.176 18.6231 162.341 19.0956 163.16 20.0721C163.98 21.0486 164.421 22.4662 164.421 24.3247C164.421 26.2148 164.011 27.6953 163.224 28.6718ZM190.535 19.0011V15.6305H186.408V10.4644L186.282 10.4959L182.376 11.6614L182.281 11.6929V15.6305H176.107V13.4254C176.107 12.4174 176.359 11.6299 176.8 11.1259C177.241 10.6219 177.903 10.3699 178.722 10.3699C179.289 10.3699 179.887 10.4959 180.549 10.7794L180.706 10.8739V7.31428L180.612 7.28278C180.045 7.09378 179.289 6.96777 178.312 6.96777C177.084 6.96777 176.013 7.25128 175.036 7.72379C174.06 8.25931 173.335 8.98383 172.8 9.96035C172.264 10.9054 171.981 11.9764 171.981 13.2049V15.6305H169.114V18.9696H171.981V33.0819H176.107V19.0011H182.281V27.9788C182.281 31.6644 184.014 33.523 187.479 33.523C188.046 33.523 188.645 33.4285 189.212 33.334C189.81 33.2079 190.251 33.0504 190.503 32.9244L190.535 32.8929V29.5224L190.377 29.6484C190.125 29.8059 189.905 29.9319 189.527 30.0264C189.212 30.1209 188.928 30.1524 188.708 30.1524C187.889 30.1524 187.322 29.9634 186.912 29.4909C186.534 29.0498 186.345 28.3253 186.345 27.2543V19.0011H190.535Z" fill="#737373"/>
<path d="M0.30127 0.635742H19.6113V19.9457H0.30127V0.635742Z" fill="#F25022"/>
<path d="M21.6274 0.635742H40.9374V19.9457H21.6274V0.635742Z" fill="#7FBA00"/>
<path d="M0.30127 21.9619H19.6113V41.2719H0.30127V21.9619Z" fill="#00A4EF"/>
<path d="M21.6274 21.9619H40.9374V41.2719H21.6274V21.9619Z" fill="#FFB900"/>
</g>
<defs>
<clipPath id="clip0_95_1046">
<rect width="190.244" height="40.636" fill="white" transform="translate(0.296387 0.635742)"/>
</clipPath>
</defs>
</svg>
