<svg width="248" height="41" viewBox="0 0 248 41" fill="none" xmlns="http://www.w3.org/2000/svg">
<g clip-path="url(#clip0_95_1030)">
<path d="M0.521973 0H247.546V40.636H0.521973V0Z" fill="#22356B"/>
<path d="M38.0139 5.34732C44.0772 5.46495 50.1619 5.07997 56.2145 5.57188C60.2781 5.94616 65.0475 8.38433 65.5073 12.8757C65.6998 16.3297 62.481 18.3829 59.8397 19.848C62.3313 23.5373 64.7588 27.2801 67.1863 31.0015C64.0102 31.0122 60.8235 31.0229 57.6357 30.9908C55.497 27.6319 53.3155 24.3072 51.1457 20.9697C49.701 20.959 48.2691 20.959 46.8255 20.9483C46.8148 24.3072 46.8148 27.6533 46.8148 31.0111H37.9497C37.9818 22.4572 37.8855 13.9023 38.0139 5.34732ZM65.9565 5.35801C69.2074 5.34732 72.4689 5.34732 75.7198 5.33662C78.2115 8.69444 80.6817 12.063 83.184 15.4101C85.7067 12.095 88.317 8.84416 90.7231 5.43287C93.974 5.32593 97.2248 5.32593 100.476 5.35801C96.1555 10.491 91.8555 15.6453 87.5257 20.7783C87.515 24.1896 87.515 27.6009 87.515 31.0122H78.6499C78.6606 27.5474 78.6606 24.0827 78.6071 20.6286C74.3403 15.5705 70.1698 10.4482 65.9565 5.35801ZM106.764 5.3687C110.442 5.31524 114.132 5.30454 117.81 5.45425C121.232 14.052 125.061 22.4775 128.633 31.0122H119.5C118.698 28.959 117.873 26.9272 117.019 24.8943C113.843 24.9596 110.656 24.9596 107.48 24.9489L105.074 31.0122C102.016 31.0122 98.9679 31.0122 95.9095 30.9908C99.5668 22.4679 103.171 13.9237 106.764 5.3687ZM131.167 5.34732C135.081 5.35801 138.994 5.3794 142.899 5.27246C146.289 9.9563 149.431 14.8112 152.736 19.5485C152.747 14.8219 152.821 10.0846 152.811 5.35801C155.773 5.34732 158.734 5.34732 161.698 5.35801C161.569 13.9023 161.622 22.4572 161.622 31.0015C158.617 31.0122 155.611 31.0122 152.609 31.0122C148.427 25.0772 144.246 19.1422 140.054 13.2286C140.054 19.1529 140.032 25.0879 139.969 31.0122H131.157C131.198 22.4572 131.167 13.9023 131.167 5.34732ZM174.989 5.34732C178.592 5.34732 182.197 5.34732 185.8 5.32593C189.542 13.8595 193.146 22.4465 196.836 31.0122H187.691C186.889 28.99 186.099 26.971 185.297 24.9489C182.077 24.9489 178.858 24.9489 175.641 24.9596C174.871 26.9593 174.102 28.959 173.331 30.9694C170.263 31.0229 167.193 31.0229 164.134 31.0122C167.75 22.4572 171.375 13.9023 174.989 5.34732ZM199.37 5.34732H208.225V31.0122H199.37C199.359 22.4572 199.359 13.9023 199.37 5.34732ZM214.021 5.34732C220.223 5.48634 226.446 5.0372 232.628 5.61466C236.573 6.09588 241.129 8.49126 241.567 12.865C241.738 16.3511 238.53 18.3508 235.888 19.8373C238.379 23.5373 240.796 27.2801 243.246 31.0015C240.069 31.0122 236.905 31.0122 233.729 31.0122C231.547 27.6651 229.366 24.3072 227.184 20.9601H222.884V31.0122H214.02L214.021 5.34732Z" fill="#F8F5EE"/>
<path d="M46.8149 10.9501C49.9696 11.3672 54.493 9.84867 56.5569 12.9285C55.2523 16.6819 49.9054 14.8747 46.8256 15.4308C46.8256 13.9444 46.8149 12.4472 46.8149 10.9501ZM222.886 10.9501C225.956 11.4634 231.816 9.51717 232.595 13.6877C230.148 16.2435 226.063 15.0458 222.886 15.4308V10.9501ZM112.292 12.2654C113.233 14.7036 114.164 17.1525 115.083 19.612C113.223 19.6013 111.373 19.6013 109.512 19.6013C110.442 17.1525 111.362 14.7036 112.292 12.2654ZM177.715 19.6013C178.636 17.1525 179.565 14.7036 180.518 12.2654C181.437 14.7036 182.368 17.1525 183.277 19.612C181.416 19.6013 179.566 19.6013 177.715 19.6013Z" fill="#22356B"/>
<path d="M32.3517 2.39324L32.0362 2.58252L30.7027 3.55778C30.7027 3.55778 29.5467 4.32773 27.5545 4.45605C25.5633 4.58545 20.487 3.87859 20.487 3.87859C20.487 3.87859 17.6607 3.49362 14.7691 4.07108C11.8786 4.64961 12.1353 6.38413 12.0711 6.64078C12.0069 6.89849 10.2264 10.2167 9.84038 10.6017C9.45541 10.9867 9.69281 8.69824 9.69281 8.69824C9.69281 8.69824 9.47038 6.76482 7.76581 7.02575C6.29221 7.25032 4.93839 7.66737 4.93839 7.66737C4.93839 7.66737 4.48926 8.24697 4.68174 8.6961C4.87423 9.14524 5.06672 9.2094 5.06672 9.2094L5.00256 11.1418C5.09345 11.5278 5.51692 12.2304 5.51692 12.2304L6.60875 12.102C6.60875 12.102 7.33271 12.8549 7.07392 13.1789C6.52534 13.8654 5.58108 15.8919 5.58108 15.8919C5.58108 15.8919 5.42603 16.8062 5.68267 17.3206C5.94039 17.8339 6.16924 19.2048 6.96378 20.3854C7.37335 20.9543 11.1065 25.2724 11.4284 25.6584C11.7492 26.0434 19.5235 30.0268 19.5235 30.0268C19.5235 30.0268 21.8013 31.1368 24.8565 34.4604C26.4926 36.2409 28.0721 38.0428 28.0721 38.0428C28.0721 38.0428 28.965 38.6278 28.6463 37.6728C28.0047 35.7458 24.9206 31.3764 24.9206 31.3764L22.4793 28.4859C22.4793 28.4859 21.1297 27.008 19.4594 26.6861C18.3301 26.4701 17.0822 24.8233 17.0822 24.8233L14.7691 22.3177C14.7691 22.3177 13.9981 19.9395 12.0059 19.362C11.1472 19.1118 11.0274 18.5268 11.0274 18.5268C11.0274 18.5268 11.1065 15.5711 11.3632 14.414C11.6198 13.258 13.4196 10.4948 15.5401 9.85316C17.6607 9.21047 20.6795 9.40403 20.6795 9.40403C20.6795 9.40403 25.5633 9.3388 28.7746 7.08991C31.9881 4.84103 32.6639 3.51822 32.6639 3.51822C32.6639 3.51822 33.2168 1.86818 32.3517 2.39324Z" fill="#FCC210"/>
<path d="M18.1 12.1226C18.1 12.1226 17.237 17.4844 17.3728 20.5503C17.4498 22.2773 16.5783 22.3094 16.3056 20.9598C15.942 19.1644 15.7367 13.2957 16.0104 12.0317C16.3056 10.6693 18.1449 9.85122 18.1 12.1226ZM19.6217 12.6006C19.6217 12.6006 18.918 17.0983 19.0998 20.4604C19.2816 23.8215 19.6452 24.616 19.7586 24.9122C19.8719 25.2074 20.5071 25.7527 20.5307 24.5262C20.5531 23.2985 21.0525 18.4383 21.5754 15.3938C22.0973 12.3503 21.939 12.4412 21.939 11.5333C21.939 10.6244 20.1286 9.70044 19.8035 11.328C19.7126 11.7825 19.6217 12.6006 19.6217 12.6006ZM23.9377 10.6244L23.8468 10.8735C23.8468 10.8735 23.4383 12.9182 23.3014 13.7822C23.1645 14.6463 21.939 21.1406 22.7795 25.525C23.0298 27.2745 23.2105 27.9097 23.2105 27.9097C23.2105 27.9097 24.1195 29.6142 24.1879 27.8198C24.2563 26.0254 23.8468 23.3905 24.8691 18.5976C25.8914 13.8047 26.1641 12.0103 26.1641 11.2147C26.1641 10.4191 25.392 8.80645 23.9377 10.6244ZM28.1627 9.42027C28.6407 8.62466 30.2758 8.01191 30.526 9.71541C30.7752 11.4189 28.8012 19.3932 28.7081 19.9375C28.5039 21.1406 27.2228 28.4069 27.55 31.954C27.6184 33.9067 26.5501 32.6577 26.4378 31.8856C26.2561 31.2504 25.8005 25.4116 26.3234 21.7095C26.8453 18.0062 27.4356 14.8259 27.504 14.349C27.5724 13.8721 27.7542 11.9183 27.7542 11.1687C27.7542 10.4201 28.1627 9.42027 28.1627 9.42027Z" fill="#FCC210"/>
</g>
<defs>
<clipPath id="clip0_95_1030">
<rect width="247.178" height="40.636" fill="white" transform="translate(0.445312)"/>
</clipPath>
</defs>
</svg>
