<svg width="124" height="41" viewBox="0 0 124 41" fill="none" xmlns="http://www.w3.org/2000/svg">
<g clip-path="url(#clip0_95_1039)">
<path d="M13.3071 2.85002L9.70882 2.83315H4.1374C3.75348 2.83315 0.763536 2.8619 0.763536 2.8619L0.710442 7.69461L0.164551 7.71128L0.198477 2.27998L0.176818 0.0484938C2.07747 0.140306 8.93848 0.200684 16.0579 0.200684C24.3607 0.200684 29.7099 0.118647 31.8086 0.0557775L31.7844 2.52628L31.8279 8.02045L31.2629 8.01317C31.2654 7.56637 31.1711 5.74297 31.1761 5.56433C31.1785 5.49916 31.0553 3.05032 31.0407 2.86688L28.6571 2.83296H21.5133L18.7772 2.84254L18.7797 36.7303C18.7797 36.7786 18.8304 38.9545 18.8425 39.4061C19.118 39.4448 21.7646 39.6258 22.2428 39.6283L22.4288 39.6258L22.4313 40.5483C22.2864 40.5483 22.11 40.5652 21.9628 40.5627C20.4582 40.5458 18.0312 40.3647 16.3069 40.3647C14.6092 40.3647 12.2134 40.5337 10.4431 40.5602C10.3948 40.5629 10.0326 40.5533 9.89724 40.546L9.89245 39.5606C9.91181 39.5631 10.018 39.5606 10.1846 39.5533C10.9332 39.5244 12.776 39.4011 13.2542 39.3601L13.3315 39.3482L13.3071 2.85002ZM59.045 0.00268345C59.045 0.00268345 61.7281 8.3394 62.1651 9.56133C62.6023 10.781 70.8014 31.8807 70.8014 31.8807C70.8014 31.8807 74.6508 22.7907 78.0803 13.0366C78.7759 11.061 79.6863 8.48661 80.3578 6.40003L82.4202 0H84.5309C84.5309 0 85.055 3.72655 85.2384 5.38799C85.7793 10.2159 89.3054 29.8379 90.5443 36.2931C90.8533 37.9089 91.0877 39.3047 91.0877 39.3047C91.45 39.3314 92.8772 39.4738 93.7225 39.5437C93.8989 39.5583 94.3723 39.5849 94.4808 39.5849L94.4856 40.5556C94.4856 40.5556 94.1015 40.5772 93.8914 40.5772C92.0005 40.5654 89.0516 40.3938 87.2355 40.3938C85.6175 40.3938 84.0621 40.5337 82.4442 40.5677C82.1687 40.5749 81.891 40.5604 81.6109 40.5604V39.5991C81.6205 39.5966 81.8356 39.5847 81.9491 39.5895C82.7388 39.5508 84.8326 39.3455 85.0402 39.3359C85.0427 38.9833 84.9267 37.7613 84.7577 36.5126C84.6394 35.6313 84.4389 34.1243 84.2264 32.6392C83.7652 29.7532 81.6328 17.794 81.0001 14.4734C80.8962 13.9275 80.8308 13.6233 80.8308 13.6233C80.8308 13.6233 74.2282 30.5647 72.8974 33.9023C72.7671 34.2282 72.6729 34.4601 72.644 34.5372C71.3711 37.7516 70.3014 40.616 70.3014 40.616L68.4248 40.6062L58.1344 14.1569L57.8906 13.5411C57.8906 13.5411 56.992 18.4991 55.6953 25.4955C55.012 29.2772 53.5917 38.7297 53.4951 39.3528C54.3137 39.4736 55.9248 39.6039 56.3643 39.5918C56.4657 39.5918 56.6372 39.5943 56.7653 39.5943V40.5506C56.5816 40.5772 56.1519 40.5793 56.1348 40.5793C54.5819 40.5456 53.4615 40.4273 51.7855 40.4273C51.346 40.4273 49.0154 40.5481 48.1945 40.5769C47.8516 40.5939 47.3684 40.5554 47.2743 40.5577L47.2768 39.6112C47.3565 39.6112 47.5183 39.5773 47.6222 39.5748C48.366 39.541 49.5082 39.4276 50.4768 39.2995C50.5565 38.8334 51.3945 34.1749 51.6602 32.5254C52.6889 27.0601 55.7199 8.80996 56.1015 6.34905C56.4346 3.68994 56.821 0.383925 56.855 0.0193592C57.6588 0.0341182 59.045 0.00268345 59.045 0.00268345ZM45.3809 40.587C43.9851 40.587 41.6183 40.3551 39.8432 40.3551C38.0875 40.3551 35.7063 40.5845 33.9918 40.5845C33.8467 40.587 33.5885 40.5556 33.4484 40.5556V39.592C33.7865 39.5849 35.3005 39.4471 35.7232 39.4157C36.2158 39.3797 36.6748 39.3555 36.8751 39.2903C36.8751 39.2903 36.8799 38.1311 36.8849 36.3318C36.9043 30.1131 36.9405 12.539 36.8824 4.58391C36.8776 3.49316 36.8744 2.4024 36.8728 1.31163C36.5516 1.2802 36.1023 1.23669 35.7812 1.19337C35.378 1.17171 33.7213 1.01454 33.4386 0.997669L33.4313 0.0364183C35.0736 0.0364183 37.5128 0.202984 39.4905 0.202984C41.3814 0.202984 43.9487 0.0362266 45.8879 0.0362266L45.8856 1.03869C45.5764 1.06035 44.8275 1.10635 44.8034 1.10865C44.2383 1.16423 42.6516 1.34307 42.2629 1.36933V4.46296C42.2604 11.585 42.2556 30.2145 42.2531 36.4888V38.5221C42.2507 39.0003 42.2556 39.2877 42.2604 39.307C42.27 39.3407 43.2627 39.435 43.4921 39.4494C43.9292 39.5002 45.7332 39.5798 45.7886 39.5918H45.907V40.5554C45.789 40.5554 45.5017 40.587 45.3809 40.587ZM104.469 2.93934L104.462 18.888L114.702 18.922C114.75 18.922 117.411 18.8396 117.477 18.8396C117.639 18.8396 119.467 18.7336 119.537 18.7092C119.537 18.7092 119.565 18.5425 119.607 18.4217C119.756 17.4557 119.942 16.5406 119.991 15.8234C119.991 15.8234 120.039 15.5192 120.041 15.3114L120.624 15.2993C120.626 15.3718 120.655 15.5552 120.652 15.8161C120.645 16.7773 120.575 18.7746 120.577 20.0808C120.582 21.9669 120.633 23.6648 120.643 24.5198C120.65 24.7614 120.635 25.1501 120.635 25.1501H119.995C119.985 25.0557 119.973 24.9615 119.959 24.8675C119.848 23.783 119.756 23.0152 119.588 21.9067C119.583 21.8512 119.546 21.6507 119.534 21.5251C119.208 21.5035 118.346 21.472 117.887 21.4575C117.687 21.4527 115.192 21.4333 112.383 21.4306C111.234 21.4283 109.164 21.4839 108.288 21.4816C107.261 21.4816 105.566 21.5468 104.46 21.5878L104.469 36.0466L104.513 37.911L110.729 38.0197L119.583 38.0101C119.624 38.0101 121.609 37.9304 122.232 37.9423C122.362 37.9448 122.628 37.9229 122.628 37.9229C122.686 37.4545 122.758 36.5076 122.831 35.6044C122.838 35.4982 123.06 33.1002 123.06 32.4552L123.604 32.4479C123.604 33.059 123.488 40.6349 123.488 40.6349C122.49 40.6349 119.428 40.6301 115.644 40.5747C113.352 40.5433 110.797 40.5433 108.273 40.5069C106.23 40.4755 104.206 40.403 102.368 40.4053C99.7434 40.408 97.1761 40.5816 96.1786 40.5816C95.9494 40.5843 95.5459 40.5675 95.4591 40.5675V39.6133H95.6425C96.2584 39.6085 98.0672 39.5021 99.0089 39.3285C99.0089 39.1378 99.0718 36.7782 99.0718 36.7299L99.0693 5.44319C99.0693 3.99662 99.0426 1.584 99.0426 1.37144C98.509 1.30857 98.3183 1.27483 98.2071 1.25068C97.6396 1.17094 96.5214 1.07434 95.9251 1.03083C95.7754 1.03362 95.6258 1.02232 95.4783 0.997094C95.4783 0.997094 95.4758 0.060186 95.471 0.0479188C95.6061 0.0552024 95.8863 0.0360349 96.3862 0.038335C97.4416 0.0408268 99.3833 0.197809 101.757 0.200109C103.25 0.202601 105.655 0.130147 107.379 0.105996C109.835 0.105996 111.702 0.084337 114.081 0.067278C117.967 0.0431269 121.285 0.014184 122.582 0.00939208C122.961 0.0069003 123.166 0.0046002 123.166 0.0046002C123.166 0.0793535 123.164 0.164074 123.164 0.262978C123.166 0.562375 123.154 1.0914 123.159 1.73849C123.169 3.75492 123.219 6.92599 123.219 7.96199L122.674 7.96448L122.669 7.67946C122.613 6.97199 122.495 4.97474 122.345 3.29394C122.331 3.14424 122.304 3.02828 122.304 3.02828C121.981 3.0162 120.652 2.97269 120.628 2.95333C120.606 2.93397 119.549 2.91691 119.527 2.90503C119.517 2.90024 116.042 2.87819 112.458 2.87609C110.014 2.87378 107.609 2.89065 106.133 2.89065C105.771 2.88874 104.469 2.93934 104.469 2.93934Z" fill="#ED1D2D"/>
</g>
<defs>
<clipPath id="clip0_95_1039">
<rect width="123.439" height="40.636" fill="white" transform="translate(0.164551)"/>
</clipPath>
</defs>
</svg>
