<svg width="147" height="42" viewBox="0 0 147 42" fill="none" xmlns="http://www.w3.org/2000/svg">
<g clip-path="url(#clip0_95_1044)">
<path fill-rule="evenodd" clip-rule="evenodd" d="M27.6351 10.6959H19.0323L13.9907 22.7034L8.949 10.6959H0.346191C3.47122 18.1385 6.59502 25.5824 9.72128 33.0242L6.25824 41.2718H14.861C19.1631 31.0257 23.3608 20.8755 27.6349 10.6961L27.6351 10.6959ZM137.026 0.699774H146.284L137.912 20.9294H128.654L137.026 0.699774ZM130.93 22.8804C133.812 22.8804 136.15 25.2173 136.15 28.1002C136.15 30.983 133.813 33.32 130.93 33.32C128.047 33.32 125.71 30.983 125.71 28.1002C125.71 25.2175 128.047 22.8804 130.93 22.8804ZM112.726 10.0886C119.209 10.0886 124.464 15.3439 124.464 21.8265C124.464 28.3093 119.209 33.5644 112.726 33.5644C106.243 33.5644 100.988 28.3091 100.988 21.8265C100.988 15.3437 106.243 10.0886 112.726 10.0886ZM112.726 17.2433C115.257 17.2433 117.309 19.2954 117.309 21.8267C117.309 24.358 115.257 26.4101 112.726 26.4101C110.195 26.4101 108.143 24.358 108.143 21.8267C108.143 19.2954 110.195 17.2433 112.726 17.2433ZM87.5264 10.0886C94.0092 10.0886 99.2643 15.3439 99.2643 21.8265C99.2643 28.3093 94.009 33.5644 87.5264 33.5644C81.0436 33.5644 75.7885 28.3091 75.7885 21.8265C75.7885 15.3437 81.0438 10.0886 87.5264 10.0886ZM87.5264 17.2433C90.0577 17.2433 92.1098 19.2954 92.1098 21.8267C92.1098 24.358 90.0577 26.4101 87.5264 26.4101C84.9951 26.4101 82.943 24.358 82.943 21.8267C82.943 19.2954 84.9951 17.2433 87.5264 17.2433ZM52.8726 0.635947H60.6346V12.703C60.6346 12.703 61.9926 10.0886 66.4785 10.0886C70.9644 10.0886 73.8415 12.0623 73.899 20.144V33.32H66.137V20.144C66.137 18.6245 64.9052 17.3927 63.3857 17.3927C61.8311 17.3927 60.5968 18.6709 60.6356 20.222L60.6344 33.32H52.8724V0.635742L52.8726 0.635947ZM42.3035 10.6959H50.0655V33.3202H42.3035V31.1874C40.5652 32.679 38.399 33.5648 36.05 33.5648C30.3257 33.5648 25.6853 28.3095 25.6853 21.8269C25.6853 15.3441 30.3257 10.089 36.05 10.089C38.399 10.089 40.5654 10.9746 42.3035 12.4664V10.6963V10.6959ZM37.9315 17.2433C40.4628 17.2433 42.5149 19.2954 42.5149 21.8267C42.5149 24.358 40.4628 26.4101 37.9315 26.4101C35.4002 26.4101 33.3481 24.358 33.3481 21.8267C33.3481 19.2954 35.4002 17.2433 37.9315 17.2433Z" fill="#6101D1"/>
</g>
<defs>
<clipPath id="clip0_95_1044">
<rect width="145.963" height="40.636" fill="white" transform="translate(0.333496 0.635742)"/>
</clipPath>
</defs>
</svg>
