<svg width="24" height="24" viewBox="0 0 24 24" fill="none" xmlns="http://www.w3.org/2000/svg">
<g clip-path="url(#clip0_33_1082)">
<g clip-path="url(#clip1_33_1082)">
<path d="M6 24C2.686 24 0 24 0 24V0C0 0 2.686 0 6 0H18C21.314 0 24 0 24 0V24C24 24 21.314 24 18 24H6Z" fill="#000490"/>
<path fill-rule="evenodd" clip-rule="evenodd" d="M7.657 6.243L11.9 2L16.143 6.243L11.9 10.486L7.657 6.243ZM2 11.9L6.243 7.657L10.486 11.9L6.243 16.143L2 11.9ZM13.314 11.9L17.557 16.143L21.8 11.9L17.557 7.657L13.314 11.9ZM7.657 17.557L11.9 13.314L16.143 17.557L11.9 21.8L7.657 17.557Z" fill="white"/>
</g>
</g>
<defs>
<clipPath id="clip0_33_1082">
<rect width="24" height="24" fill="white"/>
</clipPath>
<clipPath id="clip1_33_1082">
<rect width="24" height="24" fill="white"/>
</clipPath>
</defs>
</svg>
