<svg width="44" height="44" viewBox="0 0 44 44" fill="none" xmlns="http://www.w3.org/2000/svg">
<rect width="44" height="44" rx="22" fill="#5C6BBA" fill-opacity="0.1"/>
<path d="M33.7785 24.3396L21.836 36.1674L9.89356 24.3396C9.10585 23.5731 8.48537 22.6517 8.07122 21.6336C7.65706 20.6155 7.45819 19.5227 7.48714 18.424C7.51608 17.3253 7.7722 16.2444 8.23938 15.2495C8.70656 14.2546 9.37468 13.3673 10.2017 12.6433C11.0286 11.9193 11.9966 11.3744 13.0445 11.0428C14.0924 10.7113 15.1976 10.6003 16.2905 10.7169C17.3834 10.8335 18.4404 11.1751 19.3948 11.7202C20.3492 12.2654 21.1804 13.0022 21.836 13.8844C22.4945 13.0086 23.3267 12.2782 24.2804 11.7389C25.2341 11.1995 26.289 10.8628 27.3788 10.7499C28.4686 10.637 29.5701 10.7502 30.6142 11.0825C31.6582 11.4148 32.6225 11.959 33.4466 12.6811C34.2706 13.4033 34.9368 14.2877 35.4033 15.2791C35.8699 16.2705 36.1267 17.3475 36.1579 18.4427C36.1891 19.538 35.9938 20.6279 35.5844 21.6442C35.175 22.6605 34.5602 23.5814 33.7785 24.3491" stroke="currentColor" stroke-width="2" stroke-linecap="round" stroke-linejoin="round"/>
<path d="M21.8363 13.8748L18.6516 20.2441L25.0209 25.0211L21.8363 31.3904V36.1674" stroke="currentColor" stroke-width="2" stroke-linecap="round" stroke-linejoin="round"/>
</svg>
