<svg width="23" height="23" viewBox="0 0 23 23" fill="none" xmlns="http://www.w3.org/2000/svg">
<path d="M14.5165 12.5208C13.6656 12.5208 12.8495 12.8588 12.2479 13.4605C11.6462 14.0622 11.3082 14.8782 11.3082 15.7291M11.3082 15.7291V16.6458M11.3082 15.7291C11.3082 14.8782 10.9701 14.0622 10.3685 13.4605C9.76679 12.8588 8.95074 12.5208 8.09983 12.5208M11.3082 15.7291V6.56246M11.3082 16.6458C11.3082 17.4967 11.6462 18.3127 12.2479 18.9144C12.8495 19.5161 13.6656 19.8541 14.5165 19.8541C15.3674 19.8541 16.1835 19.5161 16.7851 18.9144C17.3868 18.3127 17.7248 17.4967 17.7248 16.6458V14.9958M11.3082 16.6458C11.3082 17.4967 10.9701 18.3127 10.3685 18.9144C9.76679 19.5161 8.95074 19.8541 8.09983 19.8541C7.24893 19.8541 6.43288 19.5161 5.8312 18.9144C5.22952 18.3127 4.8915 17.4967 4.8915 16.6458V14.9958M16.3498 15.2708C17.2007 15.2708 18.0168 14.9328 18.6185 14.3311C19.2201 13.7294 19.5582 12.9134 19.5582 12.0625C19.5582 11.2116 19.2201 10.3955 18.6185 9.79383C18.0168 9.19215 17.2007 8.85413 16.3498 8.85413H15.8915M17.7248 9.12913V6.56246C17.7248 5.71156 17.3868 4.8955 16.7851 4.29383C16.1835 3.69215 15.3674 3.35413 14.5165 3.35413C13.6656 3.35413 12.8495 3.69215 12.2479 4.29383C11.6462 4.8955 11.3082 5.71156 11.3082 6.56246M11.3082 6.56246C11.3082 5.71156 10.9701 4.8955 10.3685 4.29383C9.76679 3.69215 8.95074 3.35413 8.09983 3.35413C7.24893 3.35413 6.43288 3.69215 5.8312 4.29383C5.22952 4.8955 4.8915 5.71156 4.8915 6.56246V9.12913M6.2665 15.2708C5.4156 15.2708 4.59954 14.9328 3.99787 14.3311C3.39619 13.7294 3.05817 12.9134 3.05817 12.0625C3.05817 11.2116 3.39619 10.3955 3.99787 9.79383C4.59954 9.19215 5.4156 8.85413 6.2665 8.85413H6.72483" stroke="currentColor" stroke-width="1.83333" stroke-linecap="round" stroke-linejoin="round"/>
</svg>
