<svg width="23" height="23" viewBox="0 0 23 23" fill="none" xmlns="http://www.w3.org/2000/svg">
<path d="M3.05817 11.6041H3.97483M11.3082 3.35413V4.27079M18.6415 11.6041H19.5582M5.4415 5.73746L6.08317 6.37913M17.1748 5.73746L16.5332 6.37913M9.19983 16.1875H13.4165M8.55817 15.2708C7.7886 14.6936 7.22014 13.8889 6.93331 12.9707C6.64649 12.0525 6.65584 11.0673 6.96003 10.1547C7.26423 9.24215 7.84786 8.4484 8.62824 7.88593C9.40863 7.32346 10.3462 7.02079 11.3082 7.02079C12.2701 7.02079 13.2077 7.32346 13.9881 7.88593C14.7685 8.4484 15.3521 9.24215 15.6563 10.1547C15.9605 11.0673 15.9698 12.0525 15.683 12.9707C15.3962 13.8889 14.8277 14.6936 14.0582 15.2708C13.7003 15.6251 13.4308 16.0586 13.2715 16.5364C13.1123 17.0141 13.0677 17.5226 13.1415 18.0208C13.1415 18.507 12.9483 18.9733 12.6045 19.3172C12.2607 19.661 11.7944 19.8541 11.3082 19.8541C10.8219 19.8541 10.3556 19.661 10.0118 19.3172C9.66799 18.9733 9.47483 18.507 9.47483 18.0208C9.54858 17.5226 9.50403 17.0141 9.34478 16.5364C9.18554 16.0586 8.91606 15.6251 8.55817 15.2708Z" stroke="currentColor" stroke-width="1.83333" stroke-linecap="round" stroke-linejoin="round"/>
</svg>
