<svg width="20" height="20" viewBox="0 0 20 20" fill="none" xmlns="http://www.w3.org/2000/svg">
<g opacity="0.5" clip-path="url(#clip0_95_839)">
<g clip-path="url(#clip1_95_839)">
<path fill-rule="evenodd" clip-rule="evenodd" d="M11.8001 6.24009C11.8671 6.31232 11.9192 6.39703 11.9534 6.48939C11.9877 6.58175 12.0034 6.67995 11.9997 6.77838C11.9959 6.87681 11.9729 6.97355 11.9318 7.06307C11.8907 7.15258 11.8323 7.23313 11.7601 7.30009L8.8521 10.0001L11.7601 12.7001C11.906 12.8354 11.9921 13.023 11.9996 13.2218C12.0071 13.4206 11.9354 13.6142 11.8001 13.7601C11.6648 13.906 11.4772 13.9921 11.2784 13.9996C11.0796 14.0071 10.886 13.9354 10.7401 13.8001L7.2401 10.5501C7.16437 10.4799 7.10396 10.3948 7.06264 10.3002C7.02133 10.2055 7 10.1034 7 10.0001C7 9.89683 7.02133 9.79467 7.06264 9.70003C7.10396 9.60539 7.16437 9.5203 7.2401 9.45009L10.7401 6.20009C10.8123 6.13311 10.897 6.08101 10.9894 6.04677C11.0818 6.01253 11.18 5.99682 11.2784 6.00053C11.3768 6.00425 11.4736 6.02732 11.5631 6.06842C11.6526 6.10952 11.7331 6.16786 11.8001 6.24009Z" fill="currentColor"/>
</g>
</g>
<defs>
<clipPath id="clip0_95_839">
<rect width="20" height="20" fill="white"/>
</clipPath>
<clipPath id="clip1_95_839">
<rect width="20" height="20" fill="white"/>
</clipPath>
</defs>
</svg>
