<svg width="44" height="44" viewBox="0 0 44 44" fill="none" xmlns="http://www.w3.org/2000/svg">
<rect width="44" height="44" rx="22" fill="#5C6BBA" fill-opacity="0.1"/>
<path d="M26.7836 23.5315L25.267 22.0149L29.2276 19.3558C29.5018 19.2082 29.7243 18.9801 29.8652 18.7024C30.0061 18.4246 30.0587 18.1104 30.0159 17.8019C29.9732 17.4934 29.837 17.2054 29.6259 16.9765C29.4147 16.7475 29.1385 16.5887 28.8345 16.5212L11.5542 11.5541L16.5212 28.8103C16.5889 29.1142 16.7479 29.3902 16.9769 29.6013C17.2059 29.8123 17.494 29.9483 17.8024 29.9909C18.1109 30.0335 18.4251 29.9808 18.7027 29.8399C18.9804 29.6989 19.2083 29.4763 19.3559 29.2021L22.015 25.2669L25.5494 28.8014" stroke="currentColor" stroke-width="2" stroke-linecap="round" stroke-linejoin="round"/>
<path d="M30.6384 26.8217V30.6385" stroke="currentColor" stroke-width="2.54459" stroke-linecap="round" stroke-linejoin="round"/>
<path d="M30.6384 34.4554V34.4681" stroke="currentColor" stroke-width="2.54459" stroke-linecap="round" stroke-linejoin="round"/>
</svg>
