<svg width="22" height="22" viewBox="0 0 22 22" fill="none" xmlns="http://www.w3.org/2000/svg">
<path d="M12.8333 2.75V6.41667C12.8333 6.65978 12.9298 6.89294 13.1017 7.06485C13.2736 7.23676 13.5068 7.33333 13.7499 7.33333H17.4166M12.8333 2.75H6.41659C5.93035 2.75 5.46404 2.94315 5.12022 3.28697C4.77641 3.63079 4.58325 4.0971 4.58325 4.58333V17.4167C4.58325 17.9029 4.77641 18.3692 5.12022 18.713C5.46404 19.0568 5.93035 19.25 6.41659 19.25H15.5833C16.0695 19.25 16.5358 19.0568 16.8796 18.713C17.2234 18.3692 17.4166 17.9029 17.4166 17.4167V7.33333M12.8333 2.75L17.4166 7.33333M8.24992 8.25H9.16659M8.24992 11.9167H13.7499M8.24992 15.5833H13.7499" stroke="currentColor" stroke-width="1.83333" stroke-linecap="round" stroke-linejoin="round"/>
</svg>
