<svg width="23" height="23" viewBox="0 0 23 23" fill="none" xmlns="http://www.w3.org/2000/svg">
<path d="M18.1832 12.1285L11.3082 18.9375L4.43324 12.1285C3.97977 11.6872 3.62258 11.1568 3.38416 10.5707C3.14574 9.98465 3.03125 9.35554 3.04792 8.72302C3.06458 8.09051 3.21202 7.46829 3.48097 6.89556C3.74991 6.32283 4.13453 5.81198 4.6106 5.3952C5.08667 4.97841 5.64389 4.66471 6.24715 4.47386C6.85041 4.283 7.48666 4.21912 8.11583 4.28623C8.74499 4.35335 9.35345 4.55001 9.90287 4.86383C10.4523 5.17765 10.9308 5.60183 11.3082 6.10967C11.6873 5.60552 12.1664 5.18504 12.7154 4.87455C13.2645 4.56406 13.8717 4.37024 14.4991 4.30523C15.1265 4.24021 15.7606 4.30539 16.3616 4.49669C16.9627 4.68799 17.5178 5.0013 17.9922 5.417C18.4666 5.8327 18.85 6.34184 19.1186 6.91257C19.3872 7.48329 19.5351 8.10331 19.553 8.73382C19.571 9.36432 19.4586 9.99174 19.2229 10.5768C18.9872 11.1619 18.6332 11.692 18.1832 12.134" stroke="currentColor" stroke-width="1.83333" stroke-linecap="round" stroke-linejoin="round"/>
</svg>
