<svg width="44" height="44" viewBox="0 0 44 44" fill="none" xmlns="http://www.w3.org/2000/svg">
<rect width="44" height="44" rx="22" fill="#5C6BBA" fill-opacity="0.1"/>
<mask id="path-2-inside-1_46_1845" fill="white">
<path d="M13.8717 20.9106C14.3135 20.9106 14.7553 20.911 15.1971 20.9104C15.3756 20.9101 15.437 20.8594 15.4833 20.6842C15.5549 20.413 15.612 20.1366 15.7045 19.8726C15.8478 19.4636 15.9887 19.0521 16.2444 18.6919C16.4664 18.379 16.6497 18.0354 16.8952 17.7431C17.3208 17.2364 17.8021 16.7811 18.3752 16.4386C18.6876 16.2518 19.0028 16.0654 19.3326 15.9134C19.609 15.786 19.9065 15.7024 20.1982 15.6108C20.5926 15.4868 20.9949 15.397 21.4105 15.3826C21.7771 15.37 22.1465 15.3241 22.5096 15.3536C23.0676 15.399 23.6244 15.4832 24.1499 15.6973C24.4746 15.8297 24.8032 15.9546 25.1191 16.1057C25.3126 16.1981 25.4914 16.3254 25.666 16.452C25.9167 16.6338 26.1721 16.8135 26.399 17.0227C26.6884 17.2893 26.9672 17.5712 27.2208 17.8717C27.4274 18.1166 27.6047 18.3899 27.7682 18.6664C27.9205 18.924 28.0485 19.1977 28.1664 19.4732C28.2701 19.7157 28.3576 19.967 28.4288 20.2209C28.4891 20.4362 28.5102 20.6623 28.559 20.8812C28.6522 21.2993 28.6862 21.7236 28.6569 22.1479C28.6303 22.5327 28.5821 22.9185 28.5083 23.297C28.4384 23.6552 28.3466 24.0132 28.2207 24.3552C28.0947 24.6974 27.9177 25.0211 27.7571 25.3501C27.6148 25.6417 27.4529 25.9244 27.1886 26.1234C26.9196 26.326 26.6269 26.4189 26.2756 26.3382C25.9284 26.2585 25.685 26.0671 25.5286 25.7659C25.4029 25.5239 25.3738 25.2456 25.4699 24.9953C25.5789 24.7115 25.747 24.4502 25.8931 24.1811C26.118 23.7668 26.289 23.3352 26.3781 22.8686C26.4472 22.507 26.5036 22.1457 26.4643 21.7796C26.4218 21.3834 26.3503 20.9945 26.228 20.6093C26.1103 20.2387 25.9515 19.8922 25.7539 19.5662C25.6106 19.3297 25.4133 19.124 25.2281 18.9152C24.8381 18.4754 24.352 18.1632 23.8199 17.9295C23.4693 17.7756 23.1021 17.6518 22.7138 17.6288C22.3201 17.6054 21.9238 17.5657 21.532 17.5891C21.2407 17.6064 20.9519 17.7029 20.6674 17.7831C20.4436 17.8462 20.2189 17.9198 20.0114 18.0225C19.7899 18.1321 19.5805 18.2708 19.3794 18.4157C19.0611 18.6451 18.7738 18.9074 18.5302 19.2209C18.303 19.5132 18.092 19.8137 17.9433 20.1517C17.8413 20.3836 17.7543 20.6241 17.6844 20.8676C17.5735 21.254 17.524 21.654 17.5326 22.0544C17.539 22.3495 17.5651 22.6509 17.636 22.9362C17.755 23.4154 17.9228 23.8777 18.193 24.3028C18.3882 24.6098 18.6065 24.8926 18.857 25.1518C19.2461 25.5544 19.7017 25.8663 20.2106 26.0975C20.6358 26.2907 21.0769 26.42 21.5501 26.4382C21.8111 26.4483 22.0776 26.4732 22.329 26.5395C22.6942 26.6359 22.9312 26.8801 23.0422 27.2558C23.2109 27.8266 22.9359 28.3678 22.419 28.5842C22.1544 28.6949 21.8624 28.6834 21.5774 28.6492C21.5243 28.6428 21.4719 28.6273 21.4187 28.6238C21.0273 28.5982 20.648 28.5134 20.2694 28.4128C19.7688 28.2799 19.2872 28.1006 18.8354 27.8504C18.4209 27.6208 18.0252 27.3633 17.6597 27.0551C17.246 26.7062 16.8919 26.3089 16.5687 25.8794C16.2985 25.5202 16.0894 25.1246 15.9026 24.7189C15.8002 24.4963 15.7307 24.2573 15.6602 24.0216C15.5804 23.7551 15.5207 23.4826 15.4408 23.2161C15.4265 23.1683 15.3601 23.1318 15.3109 23.1007C15.2878 23.0862 15.2487 23.0964 15.2169 23.0964C14.315 23.0963 13.4132 23.0962 12.5114 23.0964C12.3703 23.0964 12.3011 23.1903 12.3375 23.3216C12.371 23.4424 12.3987 23.5649 12.4258 23.6873C12.5043 24.0421 12.5657 24.4016 12.6635 24.7509C12.7419 25.0306 12.8563 25.3013 12.9684 25.5703C13.1078 25.905 13.2401 26.2454 13.4141 26.5621C13.6323 26.9591 13.8782 27.3424 14.133 27.7174C14.4664 28.2081 14.8685 28.6465 15.3012 29.0477C15.6873 29.4056 16.1137 29.7216 16.5346 30.0399C16.9802 30.3769 17.4754 30.6371 17.9817 30.8676C18.6111 31.1542 19.268 31.3643 19.946 31.5125C20.6544 31.6674 21.3688 31.7453 22.0921 31.7308C22.482 31.7229 22.8739 31.708 23.2604 31.6602C23.6452 31.6126 24.0304 31.5421 24.4044 31.4409C24.8136 31.3302 25.2088 31.1689 25.6124 31.0366C26.2507 30.8275 26.8257 30.4914 27.3798 30.1253C27.7653 29.8706 28.1219 29.5693 28.4761 29.2707C28.9457 28.8749 29.3515 28.415 29.7124 27.9196C29.9454 27.5999 30.145 27.2562 30.3652 26.9269C30.6513 26.499 30.8742 26.036 31.0495 25.5575C31.2473 25.0178 31.4191 24.4641 31.5459 23.9038C31.7289 23.0943 31.7713 22.2659 31.7176 21.4376C31.6926 21.0518 31.6287 20.6677 31.5679 20.2852C31.5226 20.0007 31.4637 19.7174 31.3922 19.4383C31.3321 19.2039 31.2586 18.9709 31.1669 18.7471C30.9993 18.3381 30.8292 17.9288 30.6325 17.5333C30.3597 16.9848 30.0315 16.4678 29.6384 15.996C29.3824 15.6888 29.1282 15.3784 28.8499 15.0921C28.6139 14.8494 28.3518 14.6302 28.0883 14.4165C27.6707 14.0778 27.2201 13.7887 26.7542 13.5168C26.0741 13.1198 25.3472 12.8468 24.5981 12.6313C24.0192 12.4647 23.4228 12.3785 22.8203 12.3222C22.1964 12.2639 21.5752 12.2776 20.9574 12.3438C20.4859 12.3944 20.0217 12.5111 19.5535 12.5939C19.293 12.6401 19.032 12.7011 18.7692 12.7131C18.2988 12.7346 17.8865 12.3034 17.7828 11.8754C17.6386 11.2805 17.951 10.8295 18.4445 10.6492C18.7477 10.5384 19.0566 10.4285 19.3725 10.3701C19.9502 10.2634 20.5328 10.169 21.1176 10.119C21.6102 10.0769 22.1093 10.0913 22.6046 10.1068C22.971 10.1183 23.3387 10.1549 23.7011 10.2111C24.1107 10.2747 24.5181 10.3601 24.9207 10.4595C25.3133 10.5566 25.7021 10.6731 26.0859 10.8008C26.3401 10.8854 26.5849 11.0001 26.83 11.1101C27.1083 11.235 27.3897 11.3562 27.6562 11.5035C27.9873 11.6865 28.3125 11.883 28.6259 12.0949C28.9652 12.3242 29.2994 12.5639 29.6152 12.824C30.1074 13.2294 30.5588 13.6767 30.9794 14.1598C31.4662 14.7189 31.9047 15.311 32.2796 15.9462C32.5578 16.4176 32.7937 16.9155 33.0267 17.4118C33.1733 17.7242 33.2946 18.0507 33.3996 18.3797C33.4983 18.6891 33.5652 19.0091 33.6379 19.3262C33.7117 19.6484 33.7899 19.9706 33.8395 20.2968C33.8837 20.5871 33.8956 20.8826 33.9142 21.1763C33.9331 21.4742 33.9618 21.7733 33.952 22.0707C33.9384 22.4858 33.9127 22.9024 33.8564 23.3135C33.7888 23.8072 33.6954 24.2983 33.5908 24.7857C33.5141 25.1435 33.4203 25.5002 33.2997 25.8453C33.1712 26.2133 33.0049 26.5684 32.8499 26.9269C32.7618 27.1307 32.674 27.3359 32.5668 27.5298C32.4104 27.8127 32.2421 28.0894 32.069 28.3624C31.8886 28.6468 31.713 28.9368 31.5054 29.2009C31.213 29.5728 30.8996 29.9289 30.5834 30.2812C30.1752 30.7361 29.7167 31.1392 29.2296 31.5067C28.5861 31.9923 27.9037 32.4167 27.1738 32.7629C26.6509 33.0109 26.1156 33.2288 25.5623 33.395C25.1622 33.5152 24.7525 33.607 24.3428 33.6906C23.9936 33.7619 23.6385 33.8045 23.2857 33.8578C23.139 33.88 23.0925 33.9297 23.0925 34.0792C23.0923 34.9535 23.0923 35.8279 23.0924 36.7023C23.0925 36.8906 23.155 36.9362 23.3455 36.9038C23.6529 36.8516 23.9629 36.8141 24.2689 36.7552C24.6878 36.6744 25.105 36.5836 25.5212 36.4891C25.8406 36.4165 26.1593 36.3388 26.4745 36.2495C26.6888 36.1888 26.8979 36.1084 27.1066 36.0295C27.3918 35.9217 27.6772 35.8135 27.9572 35.6932C28.1968 35.5903 28.4282 35.4687 28.6644 35.3578C29.4647 34.982 30.2061 34.5092 30.9131 33.9819C31.4556 33.5774 31.973 33.1418 32.4376 32.6486C32.8537 32.207 33.2749 31.7684 33.6636 31.3033C33.9573 30.9518 34.2007 30.5585 34.4712 30.1872C34.9108 29.5839 35.2623 28.9295 35.5724 28.2539C35.7585 27.8485 35.9292 27.4334 36.0694 27.0103C36.2581 26.4414 36.4339 25.8659 36.5715 25.2829C36.6836 24.808 36.7343 24.3184 36.807 23.8346C36.9269 23.0358 36.937 22.2311 36.9076 21.4266C36.8904 20.9558 36.8527 20.4845 36.7962 20.0168C36.7455 19.5973 36.6667 19.1804 36.5809 18.7663C36.5115 18.4315 36.4103 18.1033 36.3287 17.7709C36.2156 17.3107 36.2683 16.8661 36.7051 16.5211C37.0372 16.2588 37.5297 16.2448 37.9114 16.4549C38.203 16.6154 38.3543 16.8758 38.4409 17.1725C38.564 17.5937 38.666 18.0217 38.7614 18.4502C38.8181 18.7051 38.8467 18.9664 38.8847 19.2253C38.9372 19.5826 38.9996 19.939 39.0349 20.298C39.1232 21.1957 39.129 22.0968 39.0819 22.9964C39.0557 23.4975 38.9986 23.9983 38.9268 24.4951C38.8564 24.9819 38.767 25.4676 38.6538 25.9462C38.542 26.4191 38.3973 26.8847 38.2538 27.3495C38.0444 28.0277 37.7845 28.6877 37.4707 29.3242C37.2173 29.8382 36.9627 30.3534 36.6721 30.8466C36.4213 31.2724 36.1131 31.6641 35.8411 32.078C35.5268 32.5563 35.1646 32.9957 34.7756 33.4126C34.3825 33.8338 33.9903 34.2577 33.5709 34.6519C33.2138 34.9877 32.8281 35.2954 32.4378 35.593C32.0331 35.9016 31.6233 36.2091 31.1875 36.4702C30.5571 36.8478 29.9145 37.2106 29.2523 37.528C28.6946 37.7952 28.1057 38.0004 27.5224 38.2105C27.121 38.3551 26.7092 38.4746 26.2957 38.5807C25.9111 38.6793 25.5206 38.7604 25.1284 38.8222C24.5114 38.9193 23.8917 39.0005 23.2714 39.0746C23.0103 39.1057 22.7449 39.1126 22.4815 39.1109C21.8901 39.107 21.2974 39.1113 20.7077 39.0736C20.1972 39.0409 19.6861 38.9769 19.1824 38.8867C18.559 38.775 17.9362 38.647 17.3259 38.4795C16.7792 38.3295 16.2409 38.1383 15.7151 37.9253C15.1179 37.6833 14.5313 37.4119 13.9545 37.1243C13.5913 36.9431 13.2523 36.7124 12.9066 36.4971C12.6014 36.3069 12.2943 36.1181 12.0025 35.9086C11.7142 35.7016 11.4469 35.4655 11.1652 35.2489C10.5968 34.8118 10.0816 34.316 9.591 33.7964C9.24246 33.4272 8.90969 33.0408 8.59679 32.6409C8.25032 32.1982 7.92074 31.7407 7.60871 31.2731C7.19398 30.6515 6.82651 29.9999 6.51926 29.3183C6.30647 28.8463 6.11741 28.3631 5.93163 27.8795C5.80031 27.5377 5.68163 27.1902 5.57687 26.8393C5.48078 26.5175 5.4064 26.189 5.33073 25.8615C5.25869 25.5497 5.19048 25.2367 5.13339 24.9219C5.08412 24.6502 5.04612 24.376 5.01493 24.1016C4.93075 23.361 4.87235 22.6183 4.89314 21.8721C4.90704 21.3728 4.90946 20.8713 4.9604 20.3753C5.0167 19.827 5.11199 19.282 5.21004 18.7391C5.29043 18.294 5.3854 17.8502 5.5006 17.4129C5.59977 17.0365 5.72821 16.667 5.8591 16.2998C6.00192 15.8993 6.15164 15.5003 6.31867 15.1094C6.45353 14.7937 6.61721 14.4903 6.77073 14.1827C6.87007 13.9837 6.96589 13.7823 7.07805 13.5905C7.24195 13.3104 7.4159 13.036 7.59157 12.7629C7.74178 12.5295 7.89438 12.2971 8.05688 12.0722C8.26334 11.7865 8.46966 11.4993 8.69633 11.2298C9.00619 10.8614 9.32541 10.4997 9.65879 10.1526C9.97073 9.8278 10.2948 9.51242 10.6346 9.21717C11.0358 8.86854 11.4464 8.52748 11.8774 8.21701C12.3608 7.86875 12.8653 7.54843 13.3725 7.2351C13.6947 7.03602 14.0344 6.86366 14.3737 6.6942C14.733 6.51478 15.0923 6.3296 15.4674 6.18883C16.0766 5.96017 16.6942 5.75105 17.3167 5.56142C17.7943 5.41595 18.2817 5.29771 18.7708 5.19633C19.1735 5.11285 19.5848 5.07054 19.9927 5.0124C20.7235 4.90821 21.459 4.8821 22.196 4.89032C23.0189 4.8995 23.835 4.97418 24.6503 5.09739C25.5459 5.23274 26.4188 5.45226 27.2793 5.72141C27.7735 5.87599 28.258 6.0691 28.7322 6.27823C29.3064 6.53151 29.8767 6.79894 30.427 7.09986C30.8787 7.34687 31.3009 7.64845 31.7318 7.93248C31.957 8.08086 32.177 8.23788 32.3915 8.40129C32.6313 8.58402 32.8677 8.77211 33.0958 8.96922C33.4197 9.24918 33.751 9.52364 34.0496 9.82929C34.4585 10.2478 34.8609 10.6764 35.2259 11.1327C35.5146 11.4936 35.5402 11.9224 35.3292 12.3436C35.1828 12.6358 34.9396 12.8063 34.6186 12.883C34.3619 12.9443 34.11 12.9146 33.8973 12.7934C33.6984 12.6801 33.5373 12.4957 33.3709 12.3311C32.8581 11.8241 32.3567 11.3053 31.8385 10.8039C31.5966 10.5698 31.3324 10.3573 31.067 10.1496C30.8377 9.97019 30.5957 9.80646 30.3534 9.64482C30.0367 9.43361 29.7195 9.22203 29.3923 9.02798C29.1258 8.86997 28.8474 8.73098 28.5684 8.59562C28.3047 8.4677 28.0375 8.34503 27.7645 8.23885C27.3435 8.07506 26.9231 7.90343 26.4899 7.77848C25.8818 7.60309 25.2675 7.44026 24.6464 7.32153C23.8299 7.16546 23.0026 7.07033 22.1679 7.09008C21.6049 7.10339 21.0397 7.10376 20.48 7.15764C19.9657 7.20716 19.4546 7.30606 18.9476 7.41002C18.4807 7.50576 18.0163 7.62097 17.5599 7.75795C17.1892 7.86924 16.8257 8.0112 16.4701 8.16519C15.9437 8.39316 15.4213 8.63209 14.9086 8.88909C14.5834 9.05207 14.2748 9.2497 13.9661 9.44351C13.3716 9.81676 12.8086 10.2346 12.2793 10.6952C11.7841 11.1262 11.2974 11.5668 10.8814 12.0794C10.6578 12.3548 10.4068 12.6084 10.1893 12.8883C9.97308 13.1665 9.7709 13.4576 9.58495 13.7569C9.28028 14.2473 8.97346 14.7383 8.70573 15.2491C8.47871 15.6822 8.29317 16.1386 8.11247 16.5939C7.94935 17.0049 7.79957 17.4232 7.67704 17.8477C7.54676 18.2992 7.44546 18.7598 7.35026 19.2202C7.27324 19.5928 7.2096 19.9694 7.16637 20.3472C7.11894 20.7617 7.0783 21.1795 7.07685 21.5961C7.07473 22.2046 7.10067 22.8138 7.13349 23.4217C7.15099 23.746 7.19356 24.0707 7.25089 24.3905C7.32231 24.7889 7.41111 25.1849 7.51003 25.5775C7.60774 25.9653 7.71309 26.3525 7.84156 26.7309C7.96526 27.0953 8.11147 27.4533 8.26823 27.8049C8.48447 28.29 8.69246 28.7822 8.95445 29.2426C9.24539 29.754 9.58888 30.2358 9.91715 30.7254C10.3284 31.3387 10.8234 31.8851 11.3321 32.416C11.6538 32.7517 12.0119 33.0537 12.3645 33.3583C12.6535 33.6078 12.9535 33.8455 13.2583 34.0756C13.4872 34.2485 13.723 34.4155 13.9706 34.5594C14.4905 34.8615 15.0105 35.1665 15.549 35.4328C16.0011 35.6564 16.4754 35.838 16.9477 36.0175C17.3232 36.1601 17.7062 36.2876 18.0938 36.3925C18.531 36.5108 18.9749 36.6074 19.4199 36.6925C19.8291 36.7707 20.2436 36.8204 20.6556 36.8837C20.8278 36.9101 20.9057 36.848 20.9058 36.6791C20.906 35.823 20.906 34.9668 20.9057 34.1107C20.9056 33.9437 20.8562 33.8896 20.6889 33.8627C20.3319 33.8054 19.9732 33.7566 19.6187 33.6865C19.0105 33.5662 18.4183 33.3911 17.8337 33.18C17.2603 32.9728 16.7181 32.7032 16.1798 32.4253C15.8922 32.2768 15.6242 32.0876 15.3578 31.9019C15.025 31.67 14.695 31.4328 14.378 31.1799C13.8047 30.7225 13.2862 30.2036 12.8314 29.631C12.4432 29.1424 12.0856 28.6262 11.7521 28.0984C11.5002 27.6999 11.2906 27.2717 11.0942 26.8421C10.9325 26.4881 10.8048 26.1167 10.6857 25.7454C10.5606 25.3554 10.4616 24.9569 10.3553 24.5611C10.2387 24.1269 10.1832 23.6833 10.1311 23.2368C10.0418 22.4701 10.0523 21.7023 10.1033 20.9379C10.1368 20.4371 10.2337 19.9359 10.3511 19.4466C10.4906 18.8649 10.6558 18.286 10.8603 17.7242C11.0233 17.2764 11.2502 16.8501 11.4704 16.4255C11.6707 16.0393 11.8841 15.6578 12.1215 15.2936C12.3458 14.9495 12.5664 14.5923 12.9288 14.3659C13.2941 14.1378 13.6894 14.1024 14.058 14.3145C14.4116 14.518 14.5866 14.8516 14.5763 15.2796C14.568 15.6233 14.4202 15.898 14.229 16.1647C14.0754 16.379 13.9251 16.5963 13.7871 16.8208C13.6043 17.1182 13.42 17.4163 13.263 17.7275C12.9397 18.3687 12.6845 19.0369 12.5402 19.7432C12.4705 20.0844 12.407 20.427 12.3416 20.7691C12.3207 20.8787 12.3802 20.9112 12.478 20.911C12.9426 20.91 13.4072 20.9106 13.8717 20.9106Z"/>
</mask>
<path d="M13.8717 20.9106C14.3135 20.9106 14.7553 20.911 15.1971 20.9104C15.3756 20.9101 15.437 20.8594 15.4833 20.6842C15.5549 20.413 15.612 20.1366 15.7045 19.8726C15.8478 19.4636 15.9887 19.0521 16.2444 18.6919C16.4664 18.379 16.6497 18.0354 16.8952 17.7431C17.3208 17.2364 17.8021 16.7811 18.3752 16.4386C18.6876 16.2518 19.0028 16.0654 19.3326 15.9134C19.609 15.786 19.9065 15.7024 20.1982 15.6108C20.5926 15.4868 20.9949 15.397 21.4105 15.3826C21.7771 15.37 22.1465 15.3241 22.5096 15.3536C23.0676 15.399 23.6244 15.4832 24.1499 15.6973C24.4746 15.8297 24.8032 15.9546 25.1191 16.1057C25.3126 16.1981 25.4914 16.3254 25.666 16.452C25.9167 16.6338 26.1721 16.8135 26.399 17.0227C26.6884 17.2893 26.9672 17.5712 27.2208 17.8717C27.4274 18.1166 27.6047 18.3899 27.7682 18.6664C27.9205 18.924 28.0485 19.1977 28.1664 19.4732C28.2701 19.7157 28.3576 19.967 28.4288 20.2209C28.4891 20.4362 28.5102 20.6623 28.559 20.8812C28.6522 21.2993 28.6862 21.7236 28.6569 22.1479C28.6303 22.5327 28.5821 22.9185 28.5083 23.297C28.4384 23.6552 28.3466 24.0132 28.2207 24.3552C28.0947 24.6974 27.9177 25.0211 27.7571 25.3501C27.6148 25.6417 27.4529 25.9244 27.1886 26.1234C26.9196 26.326 26.6269 26.4189 26.2756 26.3382C25.9284 26.2585 25.685 26.0671 25.5286 25.7659C25.4029 25.5239 25.3738 25.2456 25.4699 24.9953C25.5789 24.7115 25.747 24.4502 25.8931 24.1811C26.118 23.7668 26.289 23.3352 26.3781 22.8686C26.4472 22.507 26.5036 22.1457 26.4643 21.7796C26.4218 21.3834 26.3503 20.9945 26.228 20.6093C26.1103 20.2387 25.9515 19.8922 25.7539 19.5662C25.6106 19.3297 25.4133 19.124 25.2281 18.9152C24.8381 18.4754 24.352 18.1632 23.8199 17.9295C23.4693 17.7756 23.1021 17.6518 22.7138 17.6288C22.3201 17.6054 21.9238 17.5657 21.532 17.5891C21.2407 17.6064 20.9519 17.7029 20.6674 17.7831C20.4436 17.8462 20.2189 17.9198 20.0114 18.0225C19.7899 18.1321 19.5805 18.2708 19.3794 18.4157C19.0611 18.6451 18.7738 18.9074 18.5302 19.2209C18.303 19.5132 18.092 19.8137 17.9433 20.1517C17.8413 20.3836 17.7543 20.6241 17.6844 20.8676C17.5735 21.254 17.524 21.654 17.5326 22.0544C17.539 22.3495 17.5651 22.6509 17.636 22.9362C17.755 23.4154 17.9228 23.8777 18.193 24.3028C18.3882 24.6098 18.6065 24.8926 18.857 25.1518C19.2461 25.5544 19.7017 25.8663 20.2106 26.0975C20.6358 26.2907 21.0769 26.42 21.5501 26.4382C21.8111 26.4483 22.0776 26.4732 22.329 26.5395C22.6942 26.6359 22.9312 26.8801 23.0422 27.2558C23.2109 27.8266 22.9359 28.3678 22.419 28.5842C22.1544 28.6949 21.8624 28.6834 21.5774 28.6492C21.5243 28.6428 21.4719 28.6273 21.4187 28.6238C21.0273 28.5982 20.648 28.5134 20.2694 28.4128C19.7688 28.2799 19.2872 28.1006 18.8354 27.8504C18.4209 27.6208 18.0252 27.3633 17.6597 27.0551C17.246 26.7062 16.8919 26.3089 16.5687 25.8794C16.2985 25.5202 16.0894 25.1246 15.9026 24.7189C15.8002 24.4963 15.7307 24.2573 15.6602 24.0216C15.5804 23.7551 15.5207 23.4826 15.4408 23.2161C15.4265 23.1683 15.3601 23.1318 15.3109 23.1007C15.2878 23.0862 15.2487 23.0964 15.2169 23.0964C14.315 23.0963 13.4132 23.0962 12.5114 23.0964C12.3703 23.0964 12.3011 23.1903 12.3375 23.3216C12.371 23.4424 12.3987 23.5649 12.4258 23.6873C12.5043 24.0421 12.5657 24.4016 12.6635 24.7509C12.7419 25.0306 12.8563 25.3013 12.9684 25.5703C13.1078 25.905 13.2401 26.2454 13.4141 26.5621C13.6323 26.9591 13.8782 27.3424 14.133 27.7174C14.4664 28.2081 14.8685 28.6465 15.3012 29.0477C15.6873 29.4056 16.1137 29.7216 16.5346 30.0399C16.9802 30.3769 17.4754 30.6371 17.9817 30.8676C18.6111 31.1542 19.268 31.3643 19.946 31.5125C20.6544 31.6674 21.3688 31.7453 22.0921 31.7308C22.482 31.7229 22.8739 31.708 23.2604 31.6602C23.6452 31.6126 24.0304 31.5421 24.4044 31.4409C24.8136 31.3302 25.2088 31.1689 25.6124 31.0366C26.2507 30.8275 26.8257 30.4914 27.3798 30.1253C27.7653 29.8706 28.1219 29.5693 28.4761 29.2707C28.9457 28.8749 29.3515 28.415 29.7124 27.9196C29.9454 27.5999 30.145 27.2562 30.3652 26.9269C30.6513 26.499 30.8742 26.036 31.0495 25.5575C31.2473 25.0178 31.4191 24.4641 31.5459 23.9038C31.7289 23.0943 31.7713 22.2659 31.7176 21.4376C31.6926 21.0518 31.6287 20.6677 31.5679 20.2852C31.5226 20.0007 31.4637 19.7174 31.3922 19.4383C31.3321 19.2039 31.2586 18.9709 31.1669 18.7471C30.9993 18.3381 30.8292 17.9288 30.6325 17.5333C30.3597 16.9848 30.0315 16.4678 29.6384 15.996C29.3824 15.6888 29.1282 15.3784 28.8499 15.0921C28.6139 14.8494 28.3518 14.6302 28.0883 14.4165C27.6707 14.0778 27.2201 13.7887 26.7542 13.5168C26.0741 13.1198 25.3472 12.8468 24.5981 12.6313C24.0192 12.4647 23.4228 12.3785 22.8203 12.3222C22.1964 12.2639 21.5752 12.2776 20.9574 12.3438C20.4859 12.3944 20.0217 12.5111 19.5535 12.5939C19.293 12.6401 19.032 12.7011 18.7692 12.7131C18.2988 12.7346 17.8865 12.3034 17.7828 11.8754C17.6386 11.2805 17.951 10.8295 18.4445 10.6492C18.7477 10.5384 19.0566 10.4285 19.3725 10.3701C19.9502 10.2634 20.5328 10.169 21.1176 10.119C21.6102 10.0769 22.1093 10.0913 22.6046 10.1068C22.971 10.1183 23.3387 10.1549 23.7011 10.2111C24.1107 10.2747 24.5181 10.3601 24.9207 10.4595C25.3133 10.5566 25.7021 10.6731 26.0859 10.8008C26.3401 10.8854 26.5849 11.0001 26.83 11.1101C27.1083 11.235 27.3897 11.3562 27.6562 11.5035C27.9873 11.6865 28.3125 11.883 28.6259 12.0949C28.9652 12.3242 29.2994 12.5639 29.6152 12.824C30.1074 13.2294 30.5588 13.6767 30.9794 14.1598C31.4662 14.7189 31.9047 15.311 32.2796 15.9462C32.5578 16.4176 32.7937 16.9155 33.0267 17.4118C33.1733 17.7242 33.2946 18.0507 33.3996 18.3797C33.4983 18.6891 33.5652 19.0091 33.6379 19.3262C33.7117 19.6484 33.7899 19.9706 33.8395 20.2968C33.8837 20.5871 33.8956 20.8826 33.9142 21.1763C33.9331 21.4742 33.9618 21.7733 33.952 22.0707C33.9384 22.4858 33.9127 22.9024 33.8564 23.3135C33.7888 23.8072 33.6954 24.2983 33.5908 24.7857C33.5141 25.1435 33.4203 25.5002 33.2997 25.8453C33.1712 26.2133 33.0049 26.5684 32.8499 26.9269C32.7618 27.1307 32.674 27.3359 32.5668 27.5298C32.4104 27.8127 32.2421 28.0894 32.069 28.3624C31.8886 28.6468 31.713 28.9368 31.5054 29.2009C31.213 29.5728 30.8996 29.9289 30.5834 30.2812C30.1752 30.7361 29.7167 31.1392 29.2296 31.5067C28.5861 31.9923 27.9037 32.4167 27.1738 32.7629C26.6509 33.0109 26.1156 33.2288 25.5623 33.395C25.1622 33.5152 24.7525 33.607 24.3428 33.6906C23.9936 33.7619 23.6385 33.8045 23.2857 33.8578C23.139 33.88 23.0925 33.9297 23.0925 34.0792C23.0923 34.9535 23.0923 35.8279 23.0924 36.7023C23.0925 36.8906 23.155 36.9362 23.3455 36.9038C23.6529 36.8516 23.9629 36.8141 24.2689 36.7552C24.6878 36.6744 25.105 36.5836 25.5212 36.4891C25.8406 36.4165 26.1593 36.3388 26.4745 36.2495C26.6888 36.1888 26.8979 36.1084 27.1066 36.0295C27.3918 35.9217 27.6772 35.8135 27.9572 35.6932C28.1968 35.5903 28.4282 35.4687 28.6644 35.3578C29.4647 34.982 30.2061 34.5092 30.9131 33.9819C31.4556 33.5774 31.973 33.1418 32.4376 32.6486C32.8537 32.207 33.2749 31.7684 33.6636 31.3033C33.9573 30.9518 34.2007 30.5585 34.4712 30.1872C34.9108 29.5839 35.2623 28.9295 35.5724 28.2539C35.7585 27.8485 35.9292 27.4334 36.0694 27.0103C36.2581 26.4414 36.4339 25.8659 36.5715 25.2829C36.6836 24.808 36.7343 24.3184 36.807 23.8346C36.9269 23.0358 36.937 22.2311 36.9076 21.4266C36.8904 20.9558 36.8527 20.4845 36.7962 20.0168C36.7455 19.5973 36.6667 19.1804 36.5809 18.7663C36.5115 18.4315 36.4103 18.1033 36.3287 17.7709C36.2156 17.3107 36.2683 16.8661 36.7051 16.5211C37.0372 16.2588 37.5297 16.2448 37.9114 16.4549C38.203 16.6154 38.3543 16.8758 38.4409 17.1725C38.564 17.5937 38.666 18.0217 38.7614 18.4502C38.8181 18.7051 38.8467 18.9664 38.8847 19.2253C38.9372 19.5826 38.9996 19.939 39.0349 20.298C39.1232 21.1957 39.129 22.0968 39.0819 22.9964C39.0557 23.4975 38.9986 23.9983 38.9268 24.4951C38.8564 24.9819 38.767 25.4676 38.6538 25.9462C38.542 26.4191 38.3973 26.8847 38.2538 27.3495C38.0444 28.0277 37.7845 28.6877 37.4707 29.3242C37.2173 29.8382 36.9627 30.3534 36.6721 30.8466C36.4213 31.2724 36.1131 31.6641 35.8411 32.078C35.5268 32.5563 35.1646 32.9957 34.7756 33.4126C34.3825 33.8338 33.9903 34.2577 33.5709 34.6519C33.2138 34.9877 32.8281 35.2954 32.4378 35.593C32.0331 35.9016 31.6233 36.2091 31.1875 36.4702C30.5571 36.8478 29.9145 37.2106 29.2523 37.528C28.6946 37.7952 28.1057 38.0004 27.5224 38.2105C27.121 38.3551 26.7092 38.4746 26.2957 38.5807C25.9111 38.6793 25.5206 38.7604 25.1284 38.8222C24.5114 38.9193 23.8917 39.0005 23.2714 39.0746C23.0103 39.1057 22.7449 39.1126 22.4815 39.1109C21.8901 39.107 21.2974 39.1113 20.7077 39.0736C20.1972 39.0409 19.6861 38.9769 19.1824 38.8867C18.559 38.775 17.9362 38.647 17.3259 38.4795C16.7792 38.3295 16.2409 38.1383 15.7151 37.9253C15.1179 37.6833 14.5313 37.4119 13.9545 37.1243C13.5913 36.9431 13.2523 36.7124 12.9066 36.4971C12.6014 36.3069 12.2943 36.1181 12.0025 35.9086C11.7142 35.7016 11.4469 35.4655 11.1652 35.2489C10.5968 34.8118 10.0816 34.316 9.591 33.7964C9.24246 33.4272 8.90969 33.0408 8.59679 32.6409C8.25032 32.1982 7.92074 31.7407 7.60871 31.2731C7.19398 30.6515 6.82651 29.9999 6.51926 29.3183C6.30647 28.8463 6.11741 28.3631 5.93163 27.8795C5.80031 27.5377 5.68163 27.1902 5.57687 26.8393C5.48078 26.5175 5.4064 26.189 5.33073 25.8615C5.25869 25.5497 5.19048 25.2367 5.13339 24.9219C5.08412 24.6502 5.04612 24.376 5.01493 24.1016C4.93075 23.361 4.87235 22.6183 4.89314 21.8721C4.90704 21.3728 4.90946 20.8713 4.9604 20.3753C5.0167 19.827 5.11199 19.282 5.21004 18.7391C5.29043 18.294 5.3854 17.8502 5.5006 17.4129C5.59977 17.0365 5.72821 16.667 5.8591 16.2998C6.00192 15.8993 6.15164 15.5003 6.31867 15.1094C6.45353 14.7937 6.61721 14.4903 6.77073 14.1827C6.87007 13.9837 6.96589 13.7823 7.07805 13.5905C7.24195 13.3104 7.4159 13.036 7.59157 12.7629C7.74178 12.5295 7.89438 12.2971 8.05688 12.0722C8.26334 11.7865 8.46966 11.4993 8.69633 11.2298C9.00619 10.8614 9.32541 10.4997 9.65879 10.1526C9.97073 9.8278 10.2948 9.51242 10.6346 9.21717C11.0358 8.86854 11.4464 8.52748 11.8774 8.21701C12.3608 7.86875 12.8653 7.54843 13.3725 7.2351C13.6947 7.03602 14.0344 6.86366 14.3737 6.6942C14.733 6.51478 15.0923 6.3296 15.4674 6.18883C16.0766 5.96017 16.6942 5.75105 17.3167 5.56142C17.7943 5.41595 18.2817 5.29771 18.7708 5.19633C19.1735 5.11285 19.5848 5.07054 19.9927 5.0124C20.7235 4.90821 21.459 4.8821 22.196 4.89032C23.0189 4.8995 23.835 4.97418 24.6503 5.09739C25.5459 5.23274 26.4188 5.45226 27.2793 5.72141C27.7735 5.87599 28.258 6.0691 28.7322 6.27823C29.3064 6.53151 29.8767 6.79894 30.427 7.09986C30.8787 7.34687 31.3009 7.64845 31.7318 7.93248C31.957 8.08086 32.177 8.23788 32.3915 8.40129C32.6313 8.58402 32.8677 8.77211 33.0958 8.96922C33.4197 9.24918 33.751 9.52364 34.0496 9.82929C34.4585 10.2478 34.8609 10.6764 35.2259 11.1327C35.5146 11.4936 35.5402 11.9224 35.3292 12.3436C35.1828 12.6358 34.9396 12.8063 34.6186 12.883C34.3619 12.9443 34.11 12.9146 33.8973 12.7934C33.6984 12.6801 33.5373 12.4957 33.3709 12.3311C32.8581 11.8241 32.3567 11.3053 31.8385 10.8039C31.5966 10.5698 31.3324 10.3573 31.067 10.1496C30.8377 9.97019 30.5957 9.80646 30.3534 9.64482C30.0367 9.43361 29.7195 9.22203 29.3923 9.02798C29.1258 8.86997 28.8474 8.73098 28.5684 8.59562C28.3047 8.4677 28.0375 8.34503 27.7645 8.23885C27.3435 8.07506 26.9231 7.90343 26.4899 7.77848C25.8818 7.60309 25.2675 7.44026 24.6464 7.32153C23.8299 7.16546 23.0026 7.07033 22.1679 7.09008C21.6049 7.10339 21.0397 7.10376 20.48 7.15764C19.9657 7.20716 19.4546 7.30606 18.9476 7.41002C18.4807 7.50576 18.0163 7.62097 17.5599 7.75795C17.1892 7.86924 16.8257 8.0112 16.4701 8.16519C15.9437 8.39316 15.4213 8.63209 14.9086 8.88909C14.5834 9.05207 14.2748 9.2497 13.9661 9.44351C13.3716 9.81676 12.8086 10.2346 12.2793 10.6952C11.7841 11.1262 11.2974 11.5668 10.8814 12.0794C10.6578 12.3548 10.4068 12.6084 10.1893 12.8883C9.97308 13.1665 9.7709 13.4576 9.58495 13.7569C9.28028 14.2473 8.97346 14.7383 8.70573 15.2491C8.47871 15.6822 8.29317 16.1386 8.11247 16.5939C7.94935 17.0049 7.79957 17.4232 7.67704 17.8477C7.54676 18.2992 7.44546 18.7598 7.35026 19.2202C7.27324 19.5928 7.2096 19.9694 7.16637 20.3472C7.11894 20.7617 7.0783 21.1795 7.07685 21.5961C7.07473 22.2046 7.10067 22.8138 7.13349 23.4217C7.15099 23.746 7.19356 24.0707 7.25089 24.3905C7.32231 24.7889 7.41111 25.1849 7.51003 25.5775C7.60774 25.9653 7.71309 26.3525 7.84156 26.7309C7.96526 27.0953 8.11147 27.4533 8.26823 27.8049C8.48447 28.29 8.69246 28.7822 8.95445 29.2426C9.24539 29.754 9.58888 30.2358 9.91715 30.7254C10.3284 31.3387 10.8234 31.8851 11.3321 32.416C11.6538 32.7517 12.0119 33.0537 12.3645 33.3583C12.6535 33.6078 12.9535 33.8455 13.2583 34.0756C13.4872 34.2485 13.723 34.4155 13.9706 34.5594C14.4905 34.8615 15.0105 35.1665 15.549 35.4328C16.0011 35.6564 16.4754 35.838 16.9477 36.0175C17.3232 36.1601 17.7062 36.2876 18.0938 36.3925C18.531 36.5108 18.9749 36.6074 19.4199 36.6925C19.8291 36.7707 20.2436 36.8204 20.6556 36.8837C20.8278 36.9101 20.9057 36.848 20.9058 36.6791C20.906 35.823 20.906 34.9668 20.9057 34.1107C20.9056 33.9437 20.8562 33.8896 20.6889 33.8627C20.3319 33.8054 19.9732 33.7566 19.6187 33.6865C19.0105 33.5662 18.4183 33.3911 17.8337 33.18C17.2603 32.9728 16.7181 32.7032 16.1798 32.4253C15.8922 32.2768 15.6242 32.0876 15.3578 31.9019C15.025 31.67 14.695 31.4328 14.378 31.1799C13.8047 30.7225 13.2862 30.2036 12.8314 29.631C12.4432 29.1424 12.0856 28.6262 11.7521 28.0984C11.5002 27.6999 11.2906 27.2717 11.0942 26.8421C10.9325 26.4881 10.8048 26.1167 10.6857 25.7454C10.5606 25.3554 10.4616 24.9569 10.3553 24.5611C10.2387 24.1269 10.1832 23.6833 10.1311 23.2368C10.0418 22.4701 10.0523 21.7023 10.1033 20.9379C10.1368 20.4371 10.2337 19.9359 10.3511 19.4466C10.4906 18.8649 10.6558 18.286 10.8603 17.7242C11.0233 17.2764 11.2502 16.8501 11.4704 16.4255C11.6707 16.0393 11.8841 15.6578 12.1215 15.2936C12.3458 14.9495 12.5664 14.5923 12.9288 14.3659C13.2941 14.1378 13.6894 14.1024 14.058 14.3145C14.4116 14.518 14.5866 14.8516 14.5763 15.2796C14.568 15.6233 14.4202 15.898 14.229 16.1647C14.0754 16.379 13.9251 16.5963 13.7871 16.8208C13.6043 17.1182 13.42 17.4163 13.263 17.7275C12.9397 18.3687 12.6845 19.0369 12.5402 19.7432C12.4705 20.0844 12.407 20.427 12.3416 20.7691C12.3207 20.8787 12.3802 20.9112 12.478 20.911C12.9426 20.91 13.4072 20.9106 13.8717 20.9106Z" fill="#5C6BBA" stroke="#E4E7F5" stroke-width="0.4" mask="url(#path-2-inside-1_46_1845)"/>
</svg>
