<svg width="44" height="44" viewBox="0 0 44 44" fill="none" xmlns="http://www.w3.org/2000/svg">
<rect width="44" height="44" rx="22" fill="#5C6BBA" fill-opacity="0.1"/>
<path d="M22.3203 10.9055L34.0369 22.6221C34.3571 22.9801 34.5341 23.4436 34.5341 23.924C34.5341 24.4043 34.3571 24.8678 34.0369 25.2258L26.2258 33.0369C25.8678 33.3571 25.4043 33.5341 24.924 33.5341C24.4436 33.5341 23.9801 33.3571 23.6221 33.0369L11.9055 21.3203V16.1129C11.9055 14.7318 12.4542 13.4073 13.4307 12.4307C14.4073 11.4542 15.7318 10.9055 17.1129 10.9055H22.3203Z" stroke="currentColor" stroke-width="2" stroke-linecap="round" stroke-linejoin="round"/>
<path d="M19.7165 21.3203C21.1545 21.3203 22.3202 20.1546 22.3202 18.7166C22.3202 17.2786 21.1545 16.1129 19.7165 16.1129C18.2785 16.1129 17.1128 17.2786 17.1128 18.7166C17.1128 20.1546 18.2785 21.3203 19.7165 21.3203Z" stroke="currentColor" stroke-width="2" stroke-linecap="round" stroke-linejoin="round"/>
</svg>
