<svg width="23" height="23" viewBox="0 0 23 23" fill="none" xmlns="http://www.w3.org/2000/svg">
<path d="M6.72483 18.9375H15.8915M5.80817 6.10413L11.3082 5.18746L16.8082 6.10413M5.80817 6.10413L8.55817 11.6041C8.55817 12.3335 8.26844 13.0329 7.75271 13.5487C7.23699 14.0644 6.53751 14.3541 5.80817 14.3541C5.07882 14.3541 4.37935 14.0644 3.86362 13.5487C3.3479 13.0329 3.05817 12.3335 3.05817 11.6041L5.80817 6.10413ZM16.8082 6.10413L19.5582 11.6041C19.5582 12.3335 19.2684 13.0329 18.7527 13.5487C18.237 14.0644 17.5375 14.3541 16.8082 14.3541C16.0788 14.3541 15.3793 14.0644 14.8636 13.5487C14.3479 13.0329 14.0582 12.3335 14.0582 11.6041L16.8082 6.10413ZM11.3082 3.35413V18.9375" stroke="currentColor" stroke-width="1.83333" stroke-linecap="round" stroke-linejoin="round"/>
</svg>
