<svg width="23" height="23" viewBox="0 0 23 23" fill="none" xmlns="http://www.w3.org/2000/svg">
<path d="M19.5582 19.8541L14.0582 14.3541M3.05817 9.77079C3.05817 10.6134 3.22414 11.4478 3.54661 12.2263C3.86907 13.0049 4.34172 13.7122 4.93756 14.3081C5.53341 14.9039 6.24078 15.3766 7.01928 15.699C7.79779 16.0215 8.63218 16.1875 9.47483 16.1875C10.3175 16.1875 11.1519 16.0215 11.9304 15.699C12.7089 15.3766 13.4163 14.9039 14.0121 14.3081C14.6079 13.7122 15.0806 13.0049 15.4031 12.2263C15.7255 11.4478 15.8915 10.6134 15.8915 9.77079C15.8915 8.92814 15.7255 8.09375 15.4031 7.31524C15.0806 6.53673 14.6079 5.82937 14.0121 5.23352C13.4163 4.63768 12.7089 4.16503 11.9304 3.84257C11.1519 3.5201 10.3175 3.35413 9.47483 3.35413C8.63218 3.35413 7.79779 3.5201 7.01928 3.84257C6.24078 4.16503 5.53341 4.63768 4.93756 5.23352C4.34172 5.82937 3.86907 6.53673 3.54661 7.31524C3.22414 8.09375 3.05817 8.92814 3.05817 9.77079Z" stroke="currentColor" stroke-width="1.83333" stroke-linecap="round" stroke-linejoin="round"/>
</svg>
